<?xml version="1.0" encoding="UTF-8" standalone="no"?>
<svg
   version="1.0"
   width="1700pt"
   height="860pt"
   viewBox="0 0 1700 860"
   preserveAspectRatio="xMidYMid"
   id="svg42"
   sodipodi:docname="colnechnaja-office.svg"
   inkscape:version="1.4 (86a8ad7, 2024-10-11)"
   xml:space="preserve"
   xmlns:inkscape="http://www.inkscape.org/namespaces/inkscape"
   xmlns:sodipodi="http://sodipodi.sourceforge.net/DTD/sodipodi-0.dtd"
   xmlns="http://www.w3.org/2000/svg"
   xmlns:svg="http://www.w3.org/2000/svg"><defs
     id="defs42"><rect
       x="386.51053"
       y="141.52168"
       width="170.73109"
       height="57.184635"
       id="rect1" /></defs><sodipodi:namedview
     id="namedview42"
     pagecolor="#ffffff"
     bordercolor="#000000"
     borderopacity="0.25"
     inkscape:showpageshadow="2"
     inkscape:pageopacity="0.0"
     inkscape:pagecheckerboard="0"
     inkscape:deskcolor="#d1d1d1"
     inkscape:document-units="pt"
     inkscape:zoom="0.59106445"
     inkscape:cx="1249.4407"
     inkscape:cy="606.53284"
     inkscape:window-width="1920"
     inkscape:window-height="1009"
     inkscape:window-x="-8"
     inkscape:window-y="-8"
     inkscape:window-maximized="1"
     inkscape:current-layer="svg42" /><rect
     style="fill:#f69136;fill-opacity:0.24210526;stroke:none;stroke-width:0.678411;stroke-opacity:1"
     id="rect100"
     width="1697.7844"
     height="340.06439"
     x="2.5377948"
     y="512.63446" /><path
     d="m 959.4635,30.307552 c -34.80371,9.02916 -56.5841,34.63085 -60.06447,70.518928 -0.56135,6.17184 -1.1227,29.60195 -1.1227,52.23201 v 41.03128 l -6.06258,-0.80005 c -3.3681,-0.34288 -17.06504,-1.7144 -30.64972,-2.97163 -82.74301,-7.65765 -168.51731,-16.00105 -182.43879,-17.82974 l -5.38896,-0.68576 v -5.48608 c 0,-2.97162 -0.67362,-5.94325 -1.34724,-6.62901 -1.57178,-1.25722 -19.98407,-3.4288 -65.45343,-7.65765 -16.61596,-1.6001 -38.28408,-3.65738 -47.9393,-4.68602 -9.65522,-1.02864 -18.86137,-1.6001 -20.32088,-1.14293 -1.45951,0.34288 -6.7362,4.11456 -11.56381,8.4577 -12.91105,11.31503 -13.4724,11.54362 -19.42271,10.97215 -14.93192,-1.48581 -94.64364,-8.68629 -114.6277,-10.1721 -12.68652,-1.02864 -50.07244,-4.11456 -83.07982,-6.85759 -111.82095,-9.37205 -103.51297,-8.91488 -106.20745,-6.62901 -1.34724,1.14293 -9.31841,12.34367 -17.51413,24.91593 -8.30798,12.57225 -24.58713,37.1453 -36.03868,54.51787 l -20.99449,31.65923 v 226.30063 c 0,213.72837 0.11227,226.30063 2.02086,228.58649 1.90859,2.40016 18.63682,7.54336 60.06447,18.28692 l 17.62639,4.68602 47.49022,-1.14293 c 26.04665,-0.57146 64.443,-1.37152 85.21295,-1.7144 l 37.835,-0.68576 2.80675,4.45744 c 4.154,6.8576 11.11474,9.25775 31.88469,11.20074 5.50123,0.45717 8.08344,1.25722 8.08344,2.28586 0,2.17158 -3.70491,2.97163 -12.12516,2.74304 -4.15399,-0.11429 -7.97117,-0.22858 -8.42025,-0.11429 -2.13313,0.34288 1.90859,4.68602 6.28712,6.85759 9.87976,4.91461 22.00493,1.8287 26.83254,-6.629 2.2454,-4.00027 3.14356,-4.68603 6.39939,-4.68603 2.91902,0 4.71534,1.02864 8.19571,4.45744 2.35767,2.51445 6.7362,5.37178 9.65522,6.40042 5.6135,2.05728 9.09388,3.65738 17.06505,8.11482 6.62393,3.77168 14.81964,3.31451 20.99449,-1.02864 2.46994,-1.7144 6.62393,-3.3145 9.31842,-3.65738 4.93988,-0.68576 5.16442,-0.45718 8.08344,3.88597 6.84847,10.1721 20.2086,14.40095 31.77242,9.82922 5.83804,-2.17157 13.13559,-10.05781 14.70737,-15.65818 l 1.1227,-3.77167 29.07794,-0.80006 c 28.17977,-0.91434 29.1902,-0.80005 33.90554,1.48581 6.73621,3.31451 17.28959,2.74304 22.79082,-1.25722 2.58221,-1.94299 5.72577,-2.85733 10.21657,-3.20021 6.17485,-0.45717 6.51166,-0.34288 8.08345,2.74304 4.15399,8.22911 12.68651,13.02943 22.67854,13.02943 10.55338,0 19.19818,-6.28613 22.00493,-16.00106 1.1227,-3.65738 2.13313,-4.68602 6.17485,-6.28613 6.7362,-2.62874 11.33927,-7.54335 12.46197,-13.4866 l 1.01043,-4.80032 7.52209,-0.34288 7.52209,-0.34288 v 11.77221 c 0,6.51471 0.33681,15.201 0.67362,19.42985 0.7859,7.31477 0.89817,7.77194 4.26627,8.80058 1.90859,0.68576 18.63682,3.54309 37.16138,6.51472 38.39634,6.17183 31.99695,5.94324 107.21787,3.3145 29.9761,-1.02864 79.37491,-2.74304 109.80007,-3.77168 46.3675,-1.6001 55.4614,-2.28586 56.3595,-3.65738 0.5614,-0.91435 1.1227,-5.48608 1.1227,-10.05781 v -8.22911 h 5.7258 c 4.9399,0 5.9503,0.45717 8.6448,3.54309 8.1957,9.94351 25.0362,10.1721 32.5583,0.45717 l 2.4699,-3.20021 18.3,0.80005 c 9.9921,0.45718 18.3,1.25723 18.5246,1.8287 2.0208,5.71466 7.073,13.60089 10.1043,15.65817 5.5012,3.65739 14.3705,5.25749 21.1068,3.77168 8.0834,-1.82869 13.0233,-5.71466 16.8405,-13.02943 3.8171,-7.42906 1.7963,-6.8576 28.9656,-8.68629 15.7178,-1.02864 19.3105,-0.91434 20.77,0.34288 1.9086,1.7144 6.7362,3.65739 11.6761,4.68602 4.7153,1.14294 11.676,-1.25722 16.2791,-5.48607 4.0417,-3.65738 4.6031,-3.88597 18.5246,-5.1432 7.8589,-0.68576 14.8196,-1.25722 15.381,-1.25722 0.5613,0 2.1331,2.51445 3.4803,5.60037 2.6945,6.51471 5.6135,9.60063 11.4516,12.11508 5.6135,2.40016 16.3914,2.40016 20.7699,0.11429 4.8276,-2.51445 9.9921,-9.37204 12.1252,-16.11534 1.1227,-3.08592 2.3577,-6.05755 3.0313,-6.40043 0.5613,-0.45717 4.0417,-1.14293 7.5221,-1.48581 4.0417,-0.45717 7.7466,-1.7144 9.5429,-3.20021 2.919,-2.28586 3.4804,-2.40016 16.7283,-1.02864 7.4098,0.68576 16.9527,1.25723 20.9945,1.25723 7.2975,0 7.5221,0.11429 10.5533,4.11455 3.5927,4.80032 10.6657,8.4577 16.2792,8.4577 7.2975,0 15.8301,-5.60036 19.8718,-13.14372 0.6736,-1.14293 8.1957,-1.82869 33.7933,-2.85733 l 32.8951,-1.25723 4.3785,4.00027 c 2.47,2.28586 5.7258,4.34314 7.2976,4.68602 1.5718,0.34288 3.9294,0.80005 5.3889,1.14293 7.1853,1.48582 16.9528,-5.82895 19.8718,-14.74383 0.6736,-2.28586 2.2454,-4.68602 3.4804,-5.37178 4.2663,-2.28586 6.6239,-7.88623 6.6239,-15.88676 0,-10.28639 -2.919,-27.88755 -5.6135,-33.14504 -3.1435,-6.28613 -20.4331,-22.0586 -29.4147,-26.85891 l -7.6344,-4.11456 V 450.44952 c 0,-148.00975 -0.3368,-186.98375 -1.3472,-187.8981 -1.6841,-1.37152 -14.0338,-2.62874 -60.9626,-6.51471 -59.2786,-4.80032 -65.1167,-5.37178 -65.9026,-5.94325 -0.5613,-0.22859 -0.8981,-4.80032 -0.8981,-9.94351 0,-14.97242 3.3681,-13.6009 -44.908,-17.82975 -58.4927,-4.91461 -65.4535,-5.48608 -101.0431,-8.00053 -54.9,-3.88597 -115.9749,-9.02916 -121.8129,-10.40068 -3.0313,-0.80005 -8.5326,-2.74304 -12.0129,-4.57173 -25.373,-12.57226 -39.6313,-35.31661 -40.9786,-65.03286 -1.0104,-20.91566 5.1645,-37.831058 19.1982,-52.117718 13.3601,-13.6009 24.9239,-18.17263 46.143,-18.05833 23.0153,0.11429 37.2736,5.82895 52.4301,21.14425 7.2975,7.42906 9.4307,10.62927 14.9319,21.944298 7.073,14.74383 8.6448,16.68682 11.227,14.51524 2.4699,-2.05727 2.0209,-5.37178 -2.0209,-14.85812 -5.0521,-11.772198 -11.6761,-21.258538 -20.2086,-29.259068 -13.8092,-12.80084 -26.608,-18.74409 -45.1325,-21.02996 -24.2504,-2.97162 -44.5712,2.51446 -59.1663,15.77247 -18.3,16.80111 -26.7203,38.173948 -25.2608,64.232808 0.8982,14.62953 3.0313,23.08723 8.7571,34.28797 11.1147,21.83001 30.4252,37.03101 52.0933,41.03128 6.9607,1.37151 71.6282,6.97188 136.9694,12.11508 20.4331,1.48581 43.1117,3.3145 50.5215,4.00026 7.4098,0.57147 24.1381,1.94299 37.0491,2.85733 13.0233,0.91435 26.2712,2.05728 29.527,2.40016 l 5.8381,0.57147 v 10.28639 c 0,13.37231 1.235,14.74383 12.2374,14.74383 4.2663,0 14.4829,0.80005 22.7908,1.7144 8.1957,0.91434 31.0988,2.97162 50.8584,4.57173 19.7595,1.6001 37.6104,3.20021 39.6313,3.54309 l 3.5926,0.57146 v 183.32637 183.44066 l -33.9055,-0.11429 c -37.1614,-0.1143 -54.2265,0.80005 -60.6258,3.08592 -5.9504,2.05727 -14.7074,8.11482 -24.1381,16.22964 -9.0939,8.11482 -13.9215,10.51497 -20.8822,10.51497 h -4.8276 l -1.3473,-18.05833 c -2.5822,-33.25933 -7.7466,-63.54704 -12.3497,-71.54757 -1.1227,-1.94299 -3.7049,-4.45744 -5.838,-5.60037 -3.7049,-1.94298 -7.7467,-2.05728 -72.4142,-1.6001 -90.3774,0.80005 -120.8025,2.62874 -132.4786,8.11482 -8.1957,3.77167 -13.2479,8.80058 -27.7307,27.43037 -22.0049,28.23044 -28.6289,36.68814 -30.8743,38.74542 -4.6749,4.04529 -10.4411,14.40094 -10.4411,14.40094 l -11.4515,10.2864 -11.5638,10.40068 -0.5614,-15.42959 c -0.3368,-10.0578 -1.0104,-15.77246 -1.9086,-16.8011 -1.1227,-1.02864 -1.4595,-7.88624 -1.4595,-26.40174 0,-14.97242 -0.449,-25.83028 -1.1227,-27.2018 -1.1227,-2.05727 -2.5822,-2.17157 -22.2294,-2.17157 -14.9319,0 -21.5558,0.45718 -22.454,1.37152 -0.8982,0.91435 -1.3472,7.42906 -1.3472,21.71572 0,11.20074 -0.3368,20.3442 -0.7859,20.3442 -1.7963,0 -61.97308,-15.20101 -63.20805,-16.00106 -1.12271,-0.68576 -1.45952,-56.46086 -1.57179,-254.41676 l -0.0732,-165.29111 -0.0391,-88.32561 2.58222,-6.51471 c 3.25583,-8.229118 10.55338,-16.572518 18.41228,-20.915668 5.38896,-3.08591 6.96074,-3.42879 16.05461,-3.42879 8.53253,0 11.11474,0.45717 16.27916,2.97162 8.98157,4.22885 14.03377,9.25775 18.18777,17.94404 3.3681,6.971888 3.7049,8.457698 3.7049,18.515508 0,9.60063 -0.3368,11.54361 -3.0313,16.57252 -6.2871,12.22937 -14.5951,16.8011 -30.42518,16.57252 -15.381,-0.22859 -14.48284,-0.45717 -14.03376,3.08592 0.44908,4.34314 4.37853,6.05754 13.92149,6.05754 25.59755,0 42.21355,-16.9154 42.10125,-42.85997 0,-14.40095 -5.5012,-26.858908 -15.8301,-36.345248 -8.6448,-7.88624 -15.94231,-10.40069 -30.31288,-10.51498 -10.89019,0 -12.3497,0.22859 -19.0859,3.54309 -9.65522,4.68602 -17.17731,12.34367 -21.66812,21.9443 l -3.59264,7.657648 -0.67362,32.57358 c -0.44908,17.94404 -0.78589,38.8597 -0.89816,46.63164 l -0.11227,14.05807 c -3.55488,-0.23388 -7.11028,-0.45954 -10.66565,-0.68576 v -45.14583 c 0,-40.11693 0.33681,-45.94589 2.13313,-52.003428 4.15399,-14.28665 14.81964,-27.43038 27.05708,-33.60221 40.97856,-20.57279 85.88653,7.42906 85.88653,53.374938 0,14.74383 -4.3785,26.40174 -13.8092,36.57384 -10.8902,11.65791 -19.1981,15.08671 -39.51902,16.11535 -13.24787,0.57147 -14.59511,0.91435 -14.93192,2.85733 -0.33681,1.25723 0.44908,2.97162 1.57178,3.77168 2.80675,2.05728 22.90309,1.94298 31.09876,-0.22859 20.6577,-5.48607 35.5896,-20.57278 41.7645,-42.2885 3.0313,-10.51498 2.5822,-27.43038 -1.0104,-38.973998 -6.8485,-21.71571 -24.2504,-38.8597 -45.2449,-44.46007 -8.19567,-2.17157 -25.82207,-2.17157 -35.02821,0 -16.27915,4.00026 -32.89512,16.80111 -40.30494,31.08776 -7.52209,14.51525 -8.08344,19.658438 -8.08344,68.004478 v 43.20285 h -11.00246 l -0.7859,-12.00079 c -0.44908,-6.62901 -0.56135,-28.11614 -0.22454,-47.77458 0.44908,-31.43064 0.7859,-36.688128 2.80676,-44.574358 8.19571,-30.74489 30.53744,-49.60327 63.43256,-53.26065 25.59757,-2.97163 48.61297,4.68602 64.77977,21.48713 9.6553,10.0578 14.5951,17.94404 18.7491,30.05912 2.47,6.97189 3.0313,10.85786 3.4804,23.430108 0.5613,18.28692 -1.235,28.23044 -7.7466,41.37416 -5.5013,11.20074 -11.3393,17.94404 -21.5559,25.03022 -12.3497,8.34341 -23.6889,11.7722 -42.32577,12.68655 l -15.15646,0.68576 -0.33681,3.08592 c -0.56135,4.68602 3.48037,5.82895 16.61597,5.0289 15.83007,-1.14293 25.14847,-3.4288 37.04907,-9.37205 17.5142,-8.80058 31.3234,-24.80163 37.6105,-43.54572 3.9294,-11.77221 5.5012,-24.11588 4.7153,-36.11667 -1.0104,-14.515238 -3.3681,-23.544408 -9.4307,-36.230958 -4.3785,-9.37204 -6.5116,-12.34367 -15.3809,-21.14425 -11.1148,-11.31503 -21.3313,-17.48686 -36.0387,-22.28718 -11.56383,-3.77168 -35.81416,-4.34314 -48.27613,-1.14293 z M 272.93228,153.85855 c 22.56627,1.82869 56.13501,4.68602 74.65957,6.17183 18.52455,1.60011 50.40924,4.11456 70.73011,5.71466 20.43315,1.60011 50.85833,4.22885 67.8111,5.71467 16.95277,1.6001 31.21107,2.85733 31.66015,2.85733 1.23497,0 1.34724,15.65817 0.22454,16.34393 -0.56135,0.22859 -12.01289,-0.45717 -25.59757,-1.6001 -38.84543,-3.31451 -92.62277,-7.65765 -140.89888,-11.42933 -100.59395,-7.77194 -138.9903,-10.97215 -140.22527,-11.7722 -1.34724,-0.91435 -1.79632,-14.62954 -0.33681,-16.00106 0.89816,-1.02864 5.38896,-0.80005 61.97306,4.00027 z m 327.26713,5.60037 c 20.43314,1.94298 43.22396,4.11455 50.85832,4.80031 l 13.69694,1.25723 -0.22454,239.55864 -0.33681,239.55864 -5.05215,-0.22858 c -32.89511,-1.25723 -70.95465,-1.60011 -80.83442,-0.57147 -10.44111,1.14293 -13.24786,1.94299 -22.454,6.40042 -7.63436,3.65739 -10.8902,4.80032 -11.45155,3.77168 -0.89816,-1.48581 -1.23497,-498.31855 -0.33681,-499.2329 0.56135,-0.57146 4.04173,-0.34288 56.13502,4.68603 z m -64.55527,250.87367 v 249.73074 l -4.4908,2.28587 -4.4908,2.28586 V 415.59008 166.5451 l 3.48037,-2.97163 c 1.90859,-1.6001 3.92945,-2.97162 4.4908,-2.97162 0.56135,0 1.01043,97.83502 1.01043,249.73074 z m -332.43155,47.08882 0.11227,264.24598 -3.14356,-0.57146 c -1.79632,-0.34288 -16.5037,-4.34315 -32.89512,-8.91488 l -29.63929,-8.11482 -0.33681,-223.78617 c -0.11227,-168.58254 0.11227,-224.47194 1.1227,-226.30063 1.34724,-2.62874 18.52455,-28.00185 46.25525,-68.23307 l 16.95278,-24.57305 0.67362,16.00106 c 0.44908,8.80058 0.78589,134.98032 0.89816,280.24704 z M 255.53042,178.3173 c 20.9945,1.60011 57.59453,4.45744 81.39577,6.28613 23.80125,1.94298 72.52644,5.82895 108.34058,8.57199 35.81414,2.85733 67.02521,5.48608 69.38288,5.82896 l 4.15399,0.68576 -0.22454,235.2155 c -0.22454,129.37995 -0.78589,235.67267 -1.23497,236.24414 -0.56135,0.45717 -7.97117,1.02864 -16.61597,1.25722 l -15.60553,0.45718 v -28.00185 c 0,-20.91566 -0.33681,-28.23043 -1.34724,-29.14478 -0.89816,-0.68576 -14.93191,-1.25722 -38.28408,-1.48581 -31.21107,-0.22859 -37.04911,-0.11429 -37.94727,1.37152 -0.56135,0.80005 -1.01043,15.31529 -1.01043,32.1164 v 30.5163 l -4.93988,2.97162 c -10.44111,6.17184 -20.09634,21.02996 -21.78039,33.37363 l -0.78589,5.48608 -30.87425,0.68576 c -16.95278,0.45717 -54.78778,1.02864 -83.86571,1.37152 l -53.10373,0.68575 -0.11227,-208.24229 c -0.11227,-114.52183 -0.33681,-209.8424 -0.44908,-211.67109 -0.22454,-1.94299 -0.11227,-31.31635 0.22454,-65.49003 l 0.67362,-61.94694 h 2.91902 c 1.68405,0 20.09634,1.25723 41.09083,2.85733 z m 443.46661,4.57173 c 9.31842,0.91435 28.51659,2.74304 42.66261,4.00026 14.2583,1.37152 44.00985,4.22885 66.23932,6.40043 22.22947,2.17157 59.83993,5.71466 83.64117,8.00052 23.80125,2.17157 43.89758,4.22885 44.68347,4.45744 0.78589,0.34288 1.34724,2.51445 1.34724,5.71466 0,6.17184 3.03129,5.94325 -30.42517,2.85733 -13.80922,-1.25722 -45.3571,-4.00026 -70.0565,-6.28613 -24.69941,-2.17157 -70.95466,-6.28612 -102.72708,-9.14345 -31.77242,-2.85734 -58.49268,-5.37179 -59.1663,-5.71467 -0.89816,-0.34288 -1.45951,-2.85733 -1.45951,-6.85759 v -6.28613 l 4.26626,0.57147 c 2.2454,0.34288 11.78835,1.25722 20.99449,2.28586 z m 9.31842,21.71572 c 16.50369,1.48581 50.40924,4.57173 75.44545,6.85759 25.03622,2.17157 57.14545,4.91461 71.29147,6.17184 14.2583,1.25722 38.50862,3.42879 53.88962,4.80031 15.49326,1.25723 28.17977,2.51446 28.17977,2.62875 0.11227,0 0.56135,87.8915 1.01043,195.21286 0.56135,153.03866 0.44908,195.21287 -0.56135,195.21287 -0.78589,0 -24.6994,-5.94325 -53.21599,-13.25802 l -51.75648,-13.37231 -11.22701,0.80005 c -6.17485,0.34288 -24.58713,1.48582 -40.97856,2.40016 -16.39142,1.02864 -30.87425,2.28587 -32.22149,2.85733 l -2.58222,1.14293 v 59.3182 59.43249 l -3.70491,0.68576 c -2.02086,0.45717 -5.72577,0.57146 -8.08344,0.34288 l -4.4908,-0.34288 -0.89816,-9.14346 c -1.34724,-14.40095 -3.03129,-22.63007 -5.16442,-25.71598 -2.80675,-4.00027 -35.47733,-29.25907 -40.41721,-31.20206 -2.2454,-0.91435 -5.6135,-2.05728 -7.63436,-2.40016 l -3.59264,-0.80005 0.56135,-202.52763 c 0.22454,-111.43592 0.78589,-211.44251 1.1227,-222.30037 0.67362,-18.28691 0.78589,-19.65843 2.80675,-19.65843 1.23497,0 15.7178,1.25722 32.2215,2.85733 z m 648.47165,374.19608 c 1.1227,1.02864 2.5822,3.08592 3.1435,4.68603 1.7963,4.68602 5.389,22.40147 7.1853,35.20232 3.3681,24.57305 6.2871,87.32004 4.154,88.57726 -0.5614,0.22859 -4.3785,0.80006 -8.7571,1.25723 l -7.8589,0.68576 -3.1435,-4.68602 c -7.6344,-11.20074 -22.5663,-11.8865 -30.8743,-1.48582 -2.0209,2.51445 -4.4908,5.60037 -5.5012,6.97189 -1.9086,2.28587 -4.8276,2.62875 -51.4197,6.51472 -58.605,4.91461 -58.7172,4.91461 -60.0645,7.42906 -1.4595,2.85733 0.4491,5.0289 4.154,4.91461 6.7362,-0.22859 65.678,-5.02891 80.6099,-6.62901 8.6448,-0.80005 17.4019,-1.60011 19.4227,-1.60011 h 3.7049 l -0.7859,5.94325 c -0.449,3.31451 -0.8981,6.17184 -1.0104,6.40042 -0.4491,0.57147 -43.4485,4.45744 -70.7301,6.40043 -13.5847,1.02863 -27.6184,2.05727 -31.0988,2.28586 l -6.5117,0.45717 v -4.22885 c 0,-6.05754 -3.0313,-17.02969 -6.1748,-22.63006 -3.4804,-5.94325 -8.8693,-9.37205 -16.0546,-10.28639 -8.308,-0.91435 -12.9111,0.34288 -18.4123,5.37178 -5.6135,5.0289 -8.9816,11.65791 -11.1147,22.74436 -0.8982,4.00026 -2.1332,7.42906 -2.9191,7.77194 -0.6736,0.34288 -18.1877,-0.22859 -38.7331,-1.25723 -20.5454,-1.02864 -39.2945,-1.82869 -41.5399,-1.82869 h -4.2663 v -9.94351 -9.82922 l 12.1252,0.68576 c 31.2111,1.94298 50.2969,2.17157 55.2368,0.80005 7.4098,-2.05728 13.9215,-9.14346 15.6056,-16.80111 1.3472,-6.40042 0.3368,-11.31503 -2.5823,-12.45796 -0.8981,-0.34288 -6.3994,0.45717 -12.3497,1.7144 -6.8484,1.6001 -14.8196,2.40016 -22.0049,2.40016 -14.8196,0 -44.1221,-2.17158 -45.357,-3.4288 -1.235,-1.25723 6.6239,-9.82922 17.4018,-18.97268 l 8.6448,-7.31477 4.8276,1.82869 c 3.9295,1.48582 10.8902,2.05728 33.4564,2.51446 34.1301,0.57146 32.5584,1.14293 43.1117,-13.37231 10.778,-14.62954 23.2399,-34.40227 23.2399,-36.57384 0,-1.14294 -0.8981,-2.85733 -2.0208,-3.88597 -1.7963,-1.60011 -6.0626,-1.94299 -31.5479,-2.17157 l -29.527,-0.34288 7.1853,-9.14346 c 12.5742,-15.77247 18.6368,-20.00132 32.3337,-22.17289 13.4724,-2.17158 50.8584,-3.65739 108.3406,-4.45744 66.9129,-0.91435 75.5577,-0.68576 78.4768,1.94298 z M 825.30081,681.77905 c 0,81.94826 -0.11227,84.577 -2.13313,84.577 -1.1227,0 -3.70491,-0.34288 -5.6135,-0.68576 l -3.48037,-0.80005 v -83.09119 c 0,-45.60301 0.33681,-83.43407 0.78589,-83.77695 0.33681,-0.45717 2.91902,-0.80005 5.6135,-0.80005 h 4.82761 z m 14.14603,-83.31978 4.93988,1.25723 v 83.31977 83.31978 h -6.17485 -6.17485 v -84.577 c 0,-58.63244 0.33681,-84.577 1.23497,-84.577 0.56135,0 3.3681,0.57146 6.17485,1.25722 z m -29.86383,82.06255 c 0,55.54652 -0.33681,82.51973 -1.1227,82.9769 -0.67362,0.45717 -3.25583,0.45717 -5.6135,0 l -4.4908,-0.80005 v -81.37679 c 0,-44.80296 0.33681,-81.83397 0.78589,-82.17685 0.33681,-0.45717 2.91902,-0.80005 5.6135,-0.80005 h 4.82761 z m 241.38049,-59.31819 c 0,12.57226 -0.3368,22.85865 -0.6736,22.85865 -0.5613,0 -18.1877,-4.45744 -27.6184,-6.97189 l -4.2662,-1.14293 v -18.05834 c 0,-9.94351 0.3368,-18.40121 0.7859,-18.74409 0.3368,-0.45717 7.7466,-0.80005 16.2791,-0.80005 h 15.4932 z m -257.09829,59.54678 v 81.37679 l -4.15399,-0.80005 c -2.35767,-0.34288 -4.93989,-0.68576 -5.61351,-0.68576 -1.1227,0 -1.45951,-16.9154 -1.45951,-80.57674 v -80.57674 h 5.61351 5.6135 z m -15.71781,-1.25723 c 0,87.20575 0.56135,81.49109 -7.07301,79.20522 l -3.59264,-1.02864 -0.33681,-75.89071 c -0.11227,-41.83133 0,-77.14794 0.33681,-78.63375 0.56135,-2.17158 1.34724,-2.51446 5.6135,-2.51446 h 5.05215 z m -15.7178,0 c 0,43.66002 -0.44908,77.71941 -1.01043,77.71941 -0.56135,0 -2.58221,-0.34288 -4.4908,-0.68576 l -3.48037,-0.80005 v -76.91936 -77.03364 h 4.4908 4.4908 z m 97.78719,-75.31924 c 2.13313,1.02863 2.13313,3.77167 1.90859,81.37679 l -0.33681,80.23386 -5.72577,0.34287 -5.72577,0.34288 -0.67362,-24.91592 c -0.44908,-13.71519 -0.78589,-50.8605 -0.78589,-82.51973 V 601.4309 l 4.60307,0.80005 c 2.58221,0.45717 5.6135,1.25723 6.7362,1.94299 z m 14.81965,3.42879 4.15399,1.14294 0.11227,69.94746 c 0.11227,38.51683 0.22454,73.49056 0.33681,77.948 l 0.11227,8.00052 -6.39939,0.34288 -6.51167,0.34288 v -79.5481 c 0,-89.03444 -0.89816,-80.80532 8.19572,-78.17658 z m 21.10676,25.71598 c 0.44908,11.20074 0.78589,45.48871 0.89816,76.1193 l 0.11227,55.77511 h -5.95031 -6.06258 l -0.67362,-15.65818 c -0.89816,-18.85838 -1.01043,-137.95194 -0.11227,-138.86629 0.33681,-0.34288 2.91902,0 5.83804,0.68576 l 5.27669,1.37152 z m 12.0129,-17.25828 5.83804,1.82869 v 73.03339 73.14768 h -6.06258 -5.95032 l -0.56135,-74.06203 c -0.33681,-40.68839 -0.44908,-74.29061 -0.11227,-74.86207 0.56135,-1.02864 0.11227,-1.14294 6.84848,0.91434 z m 20.2086,5.37179 3.59264,1.14293 -0.22454,70.40464 -0.33681,70.51893 -6.39939,0.34288 -6.51166,0.34288 v -72.6905 -72.57622 l 3.14356,0.68576 c 1.68405,0.34288 4.71534,1.14294 6.7362,1.8287 z m -497.01941,5.14319 c 0.11227,3.08592 0.44908,13.4866 0.89816,23.20153 l 0.67362,17.71545 h 2.80675 2.80675 l 0.33681,-23.20153 0.22454,-23.20152 8.19571,0.34288 8.08344,0.34288 0.33681,24.80163 0.22454,24.91593 h -5.38896 c -2.91902,0 -11.45154,0.80005 -18.74909,1.7144 -7.40983,0.91434 -14.37057,1.71439 -15.381,1.71439 -1.90859,0 -2.02086,-2.05727 -2.02086,-26.85891 v -26.85891 h 8.42025 8.42026 z m 43.4485,-4.68602 c 2.46994,0.68576 2.46994,0.80005 2.46994,25.83027 v 25.03022 l -6.96074,-0.34288 -7.07302,-0.34288 -0.33681,-24.00158 c -0.11227,-13.14372 0,-24.57305 0.22454,-25.3731 0.67362,-1.6001 7.18529,-1.94298 11.67609,-0.80005 z m 707.52561,0.45717 c 0,1.37152 -18.9736,30.17342 -23.3521,35.43091 l -3.3681,4.00026 -25.0363,-0.34288 c -23.3521,-0.22859 -32.6705,-1.25722 -34.0177,-3.54309 -0.5614,-0.80005 18.749,-26.85891 24.9239,-33.60221 l 2.919,-3.08592 h 28.9657 c 17.7386,0 28.9656,0.45717 28.9656,1.14293 z m -238.57371,2.62875 5.61351,1.48581 0.33681,68.11877 0.22454,68.11878 -6.28713,0.45717 c -3.48037,0.11429 -6.51166,0.11429 -6.7362,-0.11429 -0.78589,-0.91435 -0.44908,-139.55206 0.44908,-139.55206 0.44908,0 3.3681,0.68576 6.39939,1.48582 z m 17.96321,4.57173 5.6135,1.48581 v 65.71861 65.60433 l -6.39939,0.34288 -6.51166,0.34288 v -67.54731 c 0,-37.03101 0.33681,-67.43302 0.89816,-67.43302 0.44908,0 3.3681,0.68576 6.39939,1.48582 z m 20.32087,5.37178 c 2.2454,0.91434 2.35767,2.05728 3.03129,20.80137 0.44908,10.85786 0.78589,39.20258 0.78589,62.86128 v 43.20285 h -6.7362 -6.7362 v -64.68998 -64.68997 l 3.70491,0.80005 c 1.90859,0.45717 4.60307,1.25723 5.95031,1.7144 z m 15.04419,3.88597 5.05214,1.48581 0.7859,20.45849 c 0.4491,11.20074 0.7859,38.40253 0.5614,60.46113 l -0.2246,40.00264 -6.28711,0.34287 -6.28712,0.34288 -0.56135,-61.48976 c -0.33681,-33.8308 -0.33681,-61.83265 -0.11227,-62.40411 0.67362,-1.02864 1.1227,-1.02864 7.07301,0.80005 z m 20.76994,5.25749 2.47,0.91434 0.7858,56.68945 c 0.4491,31.08777 0.5614,57.14663 0.1123,57.83239 -0.3368,0.57146 -3.4804,1.14293 -6.8485,1.14293 h -6.0625 v -45.48871 c 0,-25.14452 -0.3368,-51.88914 -0.7859,-59.66108 l -0.6736,-14.05807 4.1539,0.80006 c 2.3577,0.45717 5.389,1.25722 6.8485,1.82869 z m 511.9513,1.14293 c 11.0024,3.54309 31.3233,21.71572 34.0178,30.28771 2.0208,6.51472 4.0417,27.0875 3.1435,30.85918 -0.8981,3.77167 -1.9085,2.97162 -4.4908,-4.22885 -2.6944,-7.42906 -7.2975,-11.20074 -13.5846,-11.20074 -8.5325,0 -13.1356,5.60037 -17.2896,21.14425 l -1.7963,6.85759 -8.4203,0.80006 c -4.6031,0.34288 -19.535,1.02864 -33.1196,1.6001 l -24.6994,0.80006 -1.3473,-7.65765 c -1.4595,-8.68629 -5.6135,-16.22964 -9.992,-17.82975 -11.5638,-4.57173 -23.1276,4.00026 -28.1798,20.91567 l -2.0209,6.7433 -17.6264,-0.57147 c -18.0754,-0.68576 -23.5767,-1.94298 -24.2503,-5.48608 -0.2245,-1.48581 0.8982,-2.05727 4.9399,-2.74303 3.3681,-0.45718 6.2871,-1.8287 8.0834,-3.65739 2.47,-2.51445 2.5823,-2.97162 1.1227,-4.57173 -1.4595,-1.37152 -2.5822,-1.48581 -6.0625,-0.45717 -7.6344,2.17157 -8.308,1.82869 -8.308,-3.65738 v -4.80032 h 16.5037 c 13.0233,-0.11429 17.7386,-0.57147 21.6681,-2.05728 6.6239,-2.62874 10.5534,-6.40042 8.8693,-8.4577 -1.684,-1.94298 -3.5926,-1.94298 -13.9215,0.80005 -8.6448,2.28587 -22.5662,2.97163 -29.6392,1.60011 l -3.4804,-0.80005 v -7.65765 c 0,-7.31477 0.1123,-7.77194 2.8067,-8.22911 1.5718,-0.34288 6.9608,0.11429 12.1252,0.91434 5.0521,0.91435 18.8614,1.94299 30.5374,2.40016 15.2688,0.45717 22.005,1.14293 23.689,2.28586 2.919,1.8287 17.9632,0.80006 55.3491,-3.77167 33.3442,-4.11456 36.0387,-5.02891 34.4669,-11.31503 -1.0104,-3.88597 -8.757,-12.45797 -12.911,-14.28666 -2.2454,-0.91435 -10.5534,-1.14293 -27.1694,-0.91435 -28.0675,0.45718 -27.3938,0.22859 -40.0804,12.68655 l -8.1957,8.00053 -21.219,-0.68576 c -11.5638,-0.45717 -22.2295,-1.25722 -23.689,-1.7144 -2.2454,-0.91434 -1.5718,-1.6001 7.4098,-8.4577 15.6056,-12.00079 20.2086,-13.94377 34.8037,-14.74383 21.2191,-1.25722 76.905,-0.45717 81.9572,1.25723 z m -497.4685,2.40016 4.8276,1.25722 0.7859,8.572 c 0.3368,4.80031 0.6736,29.60195 0.6736,55.31793 v 46.51735 l -5.7257,0.45717 c -3.1436,0.1143 -5.9503,-0.11429 -6.2871,-0.57146 -0.3368,-0.45718 -0.7859,-26.05886 -1.1227,-56.80375 -0.5614,-43.43143 -0.3368,-56.00369 0.6736,-56.00369 0.7859,0 3.5926,0.57147 6.1748,1.25723 z m -379.80946,5.0289 c 10.1043,1.02864 20.9945,2.51445 24.02579,3.4288 6.28712,1.82869 37.16138,24.45875 40.52948,29.71624 1.1227,1.7144 2.02086,5.1432 2.02086,7.77194 0.11227,4.57173 0,4.80032 -3.81718,5.37179 -6.84847,1.02864 -5.72577,6.7433 1.45951,6.85759 3.59264,0 4.60307,1.94299 5.83804,11.08645 1.23497,9.48634 -2.02086,16.34393 -7.63436,16.34393 -1.1227,0 -2.02086,-1.7144 -2.46994,-4.91461 -3.14356,-19.42985 -19.19818,-27.88755 -35.02825,-18.40121 -5.95031,3.54309 -10.21657,10.74356 -12.68652,21.48713 l -1.79632,8.11482 -10.55338,0.80005 c -17.85093,1.25723 -63.76937,3.20021 -76.56816,3.20021 h -12.01289 l -0.67362,-4.34314 c -3.03129,-18.85839 -16.16688,-29.25907 -32.10923,-25.3731 -11.78835,2.97162 -19.53498,12.57226 -21.21903,26.85891 -0.56135,4.22885 -1.23497,8.00053 -1.68405,8.34341 -0.44908,0.45717 -9.87977,0.80005 -21.10677,0.80005 -19.19817,0 -20.76995,-0.11429 -25.82211,-2.62874 -2.91902,-1.48582 -5.83804,-3.77168 -6.51166,-5.02891 -1.1227,-2.17157 -1.01043,-2.28586 1.90859,-1.6001 1.79632,0.45717 7.52209,1.02864 12.79879,1.48581 8.30798,0.57147 9.76749,0.34288 11.227,-1.37152 2.80675,-3.54309 -1.68405,-5.82895 -12.79878,-6.62901 -11.11474,-0.80005 -14.14603,-2.05728 -14.14603,-5.94325 0,-3.54309 3.25583,-12.00079 4.60307,-12.00079 0.56135,0 5.72577,0.80006 11.33928,1.82869 13.36013,2.28587 28.0675,1.8287 30.87425,-1.02863 1.57178,-1.48582 1.68405,-2.40016 0.78589,-4.00027 -1.1227,-1.7144 -3.25583,-1.94298 -16.27915,-2.05728 -9.87976,0 -16.39142,-0.57146 -18.86136,-1.6001 l -3.81719,-1.48581 2.69449,-2.28587 c 3.59264,-3.08592 16.95277,-9.25775 24.81167,-11.65791 5.83804,-1.7144 7.18528,-1.7144 16.27916,-0.11429 11.45154,2.05728 39.85586,2.40015 45.02028,0.57146 2.69448,-0.91434 4.15399,-0.80005 6.96074,0.68576 3.3681,1.7144 6.96074,1.60011 56.47182,-1.6001 57.36999,-3.77168 75.55773,-5.25749 78.58902,-6.51472 3.59264,-1.37152 2.02086,-5.37178 -4.60307,-11.8865 -13.80921,-13.60089 -26.72027,-16.8011 -68.70926,-17.37257 l -25.26075,-0.34288 -7.29755,3.54309 c -4.04173,1.94299 -12.68652,8.00053 -19.19818,13.25802 -6.51166,5.37178 -14.03375,10.51498 -16.72823,11.65791 -8.75707,3.54309 -42.21353,3.65738 -41.98899,0.11429 0.11227,-2.40016 14.03375,-11.08644 32.67057,-20.45849 18.18775,-9.14346 26.83254,-12.57226 34.57917,-13.60089 9.43069,-1.25723 59.05404,-0.68576 75.89454,0.91434 z m 397.66036,-0.45717 4.154,1.14293 v 53.03207 53.14636 h -5.6135 -5.6135 v -54.2893 c 0,-42.63138 0.3368,-54.28929 1.4595,-54.28929 0.6737,0 3.2559,0.57147 5.6135,1.25723 z m 444.7016,4.80031 c 1.4595,1.14294 1.9086,2.74304 1.5718,6.51472 l -0.3368,5.1432 -16.616,1.6001 c -9.0939,0.91435 -16.8405,1.25723 -17.1773,0.91435 -1.1227,-1.14294 6.2871,-9.82922 10.1043,-11.8865 3.1435,-1.82869 10.1043,-3.20021 17.6264,-3.65738 1.5718,0 3.7049,0.57146 4.8276,1.37151 z m 28.6288,1.25723 c 3.2559,1.7144 6.3994,5.0289 5.6135,5.82896 -0.2245,0.22858 -5.9503,1.14293 -12.5742,1.94298 l -12.0129,1.60011 v -6.28613 -6.17184 l 7.9712,0.80006 c 4.3785,0.34288 9.3184,1.48581 11.0024,2.28586 z m -911.52024,16.57252 c 0,9.60063 -0.11227,10.1721 -2.46994,10.74357 -1.45951,0.45717 -11.90062,1.02864 -23.35216,1.37152 l -20.76996,0.68575 5.6135,-5.25748 c 12.46197,-12.0008 23.35217,-17.60116 34.57917,-17.71546 h 6.39939 z M 651.17,665.77799 c 11.11473,1.25723 18.7491,4.45744 26.94481,11.31504 l 3.81718,3.20021 -4.93988,0.80005 c -6.96074,0.91435 -46.59206,4.11456 -52.31784,4.11456 h -4.82761 v -10.2864 -10.28639 h 10.44112 c 5.6135,0 15.04418,0.57147 20.88222,1.14293 z M 454.36064,680.979 c -3.59264,2.28586 -15.49326,10.40068 -20.32087,13.82948 -4.4908,3.20021 -4.4908,3.20021 -19.19818,2.62874 -8.08344,-0.22858 -15.60553,-1.02864 -16.72823,-1.6001 -1.68405,-1.02864 -1.45951,-1.48581 2.2454,-4.68602 7.40982,-6.17184 29.07794,-11.42933 47.71476,-11.42933 6.96074,-0.11429 8.08344,0.11429 6.28712,1.25723 z m 47.60249,-0.57147 c 0,1.48581 -6.62393,4.34314 -16.27915,7.08618 -19.0859,5.48608 -29.19021,12.91514 -35.81414,26.40174 -2.2454,4.45744 -4.26626,9.94351 -4.60307,12.22938 -0.33681,2.28586 -0.89816,5.48607 -1.23497,6.97189 l -0.56135,2.74303 -19.8718,-0.68575 c -20.32087,-0.68576 -31.66014,-2.62875 -35.02824,-6.05755 -2.35767,-2.40016 -1.90859,-15.08671 0.78589,-20.68707 1.57178,-3.4288 2.58221,-4.34315 4.82761,-4.11456 1.57178,0.11429 10.44111,0.68576 19.64725,1.02864 19.31045,0.91434 19.31045,0.91434 31.99696,-9.02917 11.33927,-8.91487 24.47487,-14.85812 34.69144,-15.77247 13.02332,-1.02864 21.44357,-1.14293 21.44357,-0.11429 z M 1552.4737,699.4945 c 5.1644,3.65739 6.5117,18.28692 2.2454,24.68734 -4.8276,7.31477 -15.4933,4.80032 -17.1773,-4.11455 -0.8982,-5.1432 2.3577,-15.08671 6.3994,-19.08698 3.4804,-3.65738 5.1644,-3.88597 8.5325,-1.48581 z m -456.1531,2.62875 6.7362,0.80005 -6.1748,4.22885 -6.0626,4.22885 -14.2583,-0.68576 -14.3706,-0.68576 v -4.80032 c 0,-2.62874 0.2246,-5.0289 0.4491,-5.25748 0.5614,-0.57147 23.689,0.91434 33.681,2.17157 z m 41.0908,-1.14294 c 0,3.08592 -3.2558,7.20048 -7.1853,8.80058 -4.9398,2.17158 -22.2294,3.4288 -24.9239,1.94299 -1.7963,-1.02864 -1.3472,-1.60011 3.5927,-4.68602 3.0312,-2.05728 6.5116,-3.88597 7.7466,-4.11456 1.235,-0.22859 5.838,-1.14293 10.1043,-2.05728 10.5533,-2.28586 10.6656,-2.28586 10.6656,0.11429 z m 204.3315,5.48608 c 6.0626,5.25749 8.308,11.20074 8.308,22.17289 0.1122,16.22964 -5.2767,24.00158 -16.3915,24.00158 -10.5534,0 -17.5141,-9.25775 -16.2791,-21.60142 1.0104,-8.80058 3.5926,-16.00106 7.7466,-21.14425 5.7258,-7.08618 11.0025,-8.11482 16.616,-3.4288 z m 110.3614,0.68576 c 4.4908,6.17184 3.4804,20.80137 -1.684,25.71598 -4.4908,4.22885 -12.2375,3.88597 -16.7283,-0.68576 -2.6945,-2.74304 -3.2558,-4.34314 -3.2558,-8.57199 0,-6.28613 3.5926,-14.62954 7.6344,-17.94404 4.1539,-3.31451 11.0024,-2.62875 14.0337,1.48581 z m -266.8658,9.02917 c 4.1539,3.88597 5.838,7.65764 7.1852,16.11534 2.1332,13.6009 -1.7963,23.88729 -10.7779,28.34473 -6.9607,3.4288 -13.1356,2.17157 -19.1982,-3.88597 -3.7049,-3.77168 -4.8276,-5.82896 -5.5012,-10.40069 -1.5718,-11.20073 3.5926,-26.28744 10.8902,-31.20205 5.0521,-3.54309 13.1356,-3.08592 17.4019,1.02864 z m -487.02736,1.82869 c 4.15399,3.08592 6.06258,7.54335 6.7362,15.77247 0.67362,8.91487 -1.01043,14.28665 -6.06258,18.85838 -3.25583,2.85733 -4.82761,3.4288 -9.76749,3.4288 -7.8589,0 -12.57424,-3.08592 -15.60553,-9.94351 -1.57178,-3.65739 -2.13313,-6.7433 -1.68405,-10.1721 0.67362,-6.7433 5.95031,-17.25828 9.54295,-19.31556 4.04172,-2.28587 12.91105,-1.60011 16.8405,1.37152 z m 673.62006,3.4288 -0.3368,5.48607 -6.2871,0.34288 -6.2871,0.34288 -0.7859,-4.80032 c -0.8982,-5.94324 0,-6.7433 8.0834,-6.7433 h 5.9503 z m -831.35945,0.45717 c 10.44112,2.85733 16.5037,14.05807 14.2583,25.94457 -1.34724,7.54335 -2.35767,9.37204 -7.18528,13.71518 -12.57425,11.20074 -29.75156,0.91435 -29.86383,-17.82974 0,-12.22938 7.40982,-22.17289 17.40185,-22.97294 0.67362,-0.1143 3.03129,0.45717 5.38896,1.14293 z"
     id="path1"
     style="fill:#f69037;fill-opacity:1;stroke:none;stroke-width:0.113277;stroke-opacity:1"
     sodipodi:nodetypes="ccsccsccsccscccccscccsccccccccsccccsccccccccccccccsccccccsccccccscscccccccccccccsccccccccscsccccscccscccscccscccccsccccccccccccccccsscscccccccscccccccccccccscssssccccccsccscccsccccccccccsccsccccccccccsccccccccccccccccccccccccccscccccccccccccccscsccccccsscccccccccccsccccccccscccscccccccccccssccsccsccscscccccccccsccccccccccccccccccsccccccccccccccsccccccscccccssccccscccsscccccscccccccssccscscsccccccsscscccscscsssccscscscccssccccsccccscsssccccccsccccccsccccccccccscccccccscccccccccccccccccccccccccccccccccscsscccccsccccccsccccccssccccccscccccccsscccscccccccccccccccccccccscsccccccscsccccccccccccsccscccccccsccccccccccccccccccsccscsccccccccscccccscccccscccccssscccccccccccccccccccccccccccccsscccccsccccsccccccsccccccsccccscccscscccccssccscccscccccscccccccccccsscscccscsccscccccssccccccccccccscccccccccscccccccc" /><path
     d="m 158.75365,614.00315 c -1.1227,0.34288 -1.45951,7.20048 -1.45951,28.34473 0,23.08724 0.22454,28.00184 1.68405,29.14478 0.89816,0.80005 2.46994,1.14293 3.36811,0.68576 1.45951,-0.57147 1.68405,-4.68603 1.68405,-28.45902 0,-29.83054 -0.33681,-31.77352 -5.2767,-29.71625 z"
     id="path12"
     style="fill:#f69037;fill-opacity:1;stroke:none;stroke-width:0.113277" /><path
     d="m 176.60459,614.57462 c -2.13313,2.17157 -1.90859,54.63217 0.22454,57.6038 1.34724,1.7144 2.02086,1.94298 3.70491,0.91434 1.79632,-1.14293 2.02086,-3.65738 2.35767,-28.00184 0.11227,-14.74383 0,-27.88755 -0.33681,-29.37337 -0.67362,-2.74303 -3.81718,-3.3145 -5.95031,-1.14293 z"
     id="path13"
     style="fill:#f69037;fill-opacity:1;stroke:none;stroke-width:0.113277" /><path
     d="m 270.68688,258.77975 c 0,14.28665 -0.33681,29.14477 -0.67362,32.80216 -1.1227,11.31503 -3.3681,10.51498 40.19267,12.68655 20.76995,0.91434 38.62089,1.48581 39.51905,1.14293 1.57178,-0.68576 1.79632,-4.80032 1.79632,-33.8308 0,-20.57278 -0.44908,-33.37363 -1.1227,-33.8308 -1.1227,-0.68576 -63.88165,-5.1432 -73.76141,-5.1432 h -5.95031 z m 24.47486,9.48634 0.22454,27.20179 h -6.39939 c -3.59264,0 -7.63436,-0.34288 -8.9816,-0.68576 l -2.58221,-0.68576 v -26.85891 -26.74462 l 8.75706,0.34288 8.64479,0.34288 z m 19.75953,-25.83028 5.16442,0.80005 v 26.74462 26.74462 l -8.08344,-0.34288 -8.19572,-0.34288 -0.33681,-27.20179 -0.22454,-27.0875 h 3.14357 c 1.79632,0 5.6135,0.34288 8.53252,0.68576 z m 24.02578,1.60011 h 4.71534 v 26.85891 26.85891 h -7.8589 -7.8589 v -26.63032 c 0,-14.74383 0.33681,-27.0875 0.78589,-27.54468 0.44908,-0.45717 1.90859,-0.57146 3.14356,-0.22858 1.23497,0.34288 4.37853,0.68576 7.07301,0.68576 z"
     id="path14"
     style="fill:#f69037;fill-opacity:1;stroke:none;stroke-width:0.113277" /><path
     d="m 408.55447,241.29288 c -1.34724,1.37152 -1.1227,66.51867 0.22454,67.31872 1.1227,0.68576 14.70737,1.60011 56.69637,3.88597 10.55338,0.57147 17.40185,0.45717 18.30001,-0.22858 1.01043,-0.80006 1.34724,-8.91488 1.34724,-33.48793 v -32.45928 l -2.46994,-0.45717 c -1.45951,-0.34288 -15.7178,-1.37152 -31.77242,-2.40016 -16.05461,-1.02864 -31.99696,-2.17157 -35.36506,-2.51445 -3.3681,-0.34288 -6.51166,-0.22859 -6.96074,0.34288 z m 23.80125,34.63085 c 0,14.51525 -0.44908,26.51604 -0.89816,26.85892 -0.44908,0.34288 -4.37853,0.22858 -8.75707,-0.22859 l -7.74663,-0.80005 -0.33681,-26.05886 -0.22454,-25.94457 h 8.9816 8.98161 z m 23.68897,-21.25854 c 1.01043,3.88597 1.34724,44.23149 0.33681,46.86023 -0.56135,1.60011 -2.2454,1.94299 -8.42025,1.94299 h -7.74663 v -26.28745 -26.40174 l 7.52209,0.34288 c 7.07301,0.34288 7.52209,0.45717 8.30798,3.54309 z m 19.31045,-1.48581 c 1.79632,0 1.90859,1.94298 1.90859,25.71598 v 25.71598 h -6.7362 -6.73621 v -25.4874 c 0,-14.05807 0.33681,-25.94456 0.89816,-26.40174 0.44909,-0.45717 2.58222,-0.57146 4.71535,-0.22858 2.13313,0.34288 4.82761,0.68576 5.95031,0.68576 z"
     id="path15"
     style="fill:#f69037;fill-opacity:1;stroke:none;stroke-width:0.113277" /><path
     d="m 271.24823,360.95791 c -0.33681,0.80005 -0.44908,16.57252 -0.33681,35.08802 l 0.33681,33.71651 10.66565,0.80005 c 5.83804,0.34288 23.80125,0.91435 39.85586,1.14294 l 29.19021,0.34288 0.33681,-33.60222 c 0.11227,-20.3442 -0.11227,-34.05938 -0.78589,-34.74514 -0.67362,-0.68576 -15.15646,-1.8287 -32.33377,-2.62875 -40.52948,-1.94298 -46.25525,-1.94298 -46.92887,-0.11429 z m 23.91351,34.74514 0.22454,27.77326 H 288.201 c -11.67608,0 -10.77792,2.28587 -10.77792,-27.88755 0,-14.62953 0.33681,-26.9732 0.78589,-27.43038 0.44908,-0.45717 4.37853,-0.57146 8.75706,-0.45717 l 7.8589,0.34288 z m 24.69941,0.57147 c -0.33681,25.60169 -0.44908,27.77326 -2.2454,27.65897 -1.1227,-0.1143 -4.82761,-0.22859 -8.19571,-0.34288 l -6.17486,-0.1143 v -27.43038 -27.43037 h 8.42026 8.42025 z m 23.80124,0.91435 v 27.43038 h -7.8589 -7.8589 v -27.43038 -27.43038 h 7.8589 7.8589 z"
     id="path16"
     style="fill:#f69037;fill-opacity:1;stroke:none;stroke-width:0.113277" /><path
     d="m 408.32993,366.1011 c -0.33681,0.57147 -0.67362,15.42959 -0.78589,33.25934 -0.11227,23.08723 0.22454,32.68787 1.1227,33.60221 1.79632,1.82869 73.08779,4.45744 75.10865,2.85733 1.01043,-0.91434 1.34724,-9.02916 1.34724,-33.60221 v -32.45928 l -2.46994,-0.45718 c -2.13313,-0.45717 -67.36202,-4.11455 -72.41417,-4.11455 -0.67362,0 -1.57178,0.45717 -1.90859,0.91434 z m 21.55585,7.77194 2.46994,0.68576 v 26.28745 26.17315 l -8.6448,-0.34288 -8.75706,-0.34288 -0.33681,-25.14451 c -0.11227,-13.82948 0,-25.71598 0.22454,-26.51603 0.67362,-1.60011 10.32885,-2.05728 15.04419,-0.80006 z m 25.59756,1.94299 c 0.67362,0.68576 1.1227,23.6587 0.67362,40.45981 l -0.22454,11.7722 h -7.74663 -7.63436 l -0.67362,-7.77194 c -1.01043,-9.82922 -1.01043,-20.68707 0,-34.97373 l 0.67362,-11.20074 7.18528,0.57147 c 3.92945,0.22858 7.40982,0.80005 7.74663,1.14293 z m 19.31045,0.34288 2.46994,0.68576 v 26.17315 26.17316 h -6.7362 -6.73621 v -26.85892 -26.85891 h 4.26627 c 2.2454,0 5.27669,0.34288 6.7362,0.68576 z"
     id="path17"
     style="fill:#f69037;fill-opacity:1;stroke:none;stroke-width:0.113277" /><path
     d="m 271.02369,488.73776 c -1.1227,1.14293 -1.45951,9.48634 -1.45951,33.7165 0,24.34447 0.33681,32.45929 1.45951,33.25934 0.78589,0.68576 17.17731,1.48581 39.18224,1.94298 33.79327,0.68576 37.94727,0.57147 39.51905,-1.14293 1.57178,-1.6001 1.79632,-5.71466 1.57178,-33.94509 l -0.33681,-32.1164 -3.92945,-0.80006 c -2.13313,-0.45717 -19.8718,-1.14293 -39.29451,-1.6001 -27.84297,-0.57147 -35.70187,-0.45718 -36.7123,0.68576 z m 24.36259,33.60221 v 26.85891 h -8.9816 -8.9816 v -26.85891 -26.85891 h 8.9816 8.9816 z m 22.22947,-26.17315 2.46994,0.68576 v 26.17315 26.17315 h -8.30798 -8.19572 l -0.67362,-4.00026 c -0.33681,-2.17157 -0.33681,-14.28666 0,-26.85891 l 0.67362,-22.85865 h 5.72578 c 3.14356,0 6.84847,0.34288 8.30798,0.68576 z m 26.04664,27.31608 v 26.85892 h -7.8589 -7.8589 l -0.11227,-8.572 c 0,-4.68602 0,-10.85786 0,-13.71519 0,-2.85733 0,-11.08644 0,-18.28692 l 0.11227,-13.14372 h 7.8589 7.8589 z"
     id="path18"
     style="fill:#f69037;fill-opacity:1;stroke:none;stroke-width:0.113277" /><path
     d="m 408.10539,491.13792 c -0.56135,0.80005 -1.1227,15.42958 -1.34724,32.45928 -0.44908,27.77326 -0.22454,31.08776 1.45951,32.80216 1.57178,1.7144 5.16442,1.94298 29.07794,1.94298 15.04418,0 31.0988,0.34288 35.5896,0.68576 13.02332,1.14294 12.3497,3.08592 12.01289,-34.74514 l -0.33681,-31.65923 -8.9816,-0.68576 c -4.93988,-0.45718 -21.89266,-1.14293 -37.72273,-1.60011 -23.35217,-0.57146 -29.07794,-0.45717 -29.75156,0.80006 z m 23.68898,32.91645 v 25.71598 l -8.6448,0.34288 -8.75706,0.34288 v -26.40174 -26.40174 l 8.75706,0.34288 8.6448,0.34288 z m 21.44357,-25.14451 h 2.69448 v 25.60168 c 0,14.17237 -0.33681,25.94457 -0.89816,26.17316 -0.44908,0.34288 -4.15399,0.34288 -8.42025,0 l -7.52209,-0.68576 v -25.3731 c 0,-13.94378 0.33681,-25.71598 0.89816,-26.17316 0.44908,-0.45717 3.03129,-0.57146 5.72577,-0.22858 2.69448,0.34288 6.06258,0.68576 7.52209,0.68576 z m 23.80125,26.51603 0.22454,26.05886 h -6.62393 -6.51167 l -0.78589,-4.34314 c -0.89816,-5.60037 -0.89816,-28.45902 0.11227,-39.54547 l 0.67362,-8.80058 6.28713,0.34288 6.28712,0.34288 z"
     id="path19"
     style="fill:#f69037;fill-opacity:1;stroke:none;stroke-width:0.113277" /><path
     d="m 270.79915,615.26038 c -1.79632,3.4288 -1.68405,64.46139 0.11227,66.29008 1.57178,1.60011 77.80313,2.05728 78.70129,0.45718 0.33681,-0.45718 0.89816,-14.97242 1.34724,-32.2307 0.67362,-25.48739 0.44908,-31.77352 -0.78589,-33.37363 -1.23497,-1.7144 -5.72578,-2.05728 -39.74359,-2.74304 -38.05954,-0.80005 -38.39635,-0.80005 -39.63132,1.60011 z m 24.58713,32.68787 c 0,29.48766 0.33681,28.11614 -7.29755,28.11614 -2.02086,0 -5.27669,-0.34288 -7.18528,-0.68576 l -3.48037,-0.80006 v -26.63032 -26.74462 h 8.9816 8.9816 z m 24.13806,0.68576 v 26.85891 l -7.97117,0.34288 -8.08345,0.34288 -0.78589,-8.68629 c -0.44908,-4.68602 -0.44908,-17.14398 0,-27.54467 l 0.89816,-18.85838 7.97118,0.34288 7.97117,0.34288 z m 23.5767,0 v 26.85891 l -7.40982,0.34288 -7.40982,0.34288 -0.78589,-3.65738 c -0.89816,-4.57173 -0.89816,-45.37442 0,-48.80322 0.67362,-2.40016 1.23497,-2.62874 8.19571,-2.28586 l 7.40982,0.34288 z"
     id="path20"
     style="fill:#f69037;fill-opacity:1;stroke:none;stroke-width:0.113277" /><path
     d="m 693.04672,277.40955 c -2.02086,2.05727 -1.90859,85.83422 0.11227,87.54862 0.78589,0.68576 12.57424,1.7144 27.16935,2.51445 14.25829,0.68576 46.8166,2.17157 72.41417,3.4288 25.59756,1.25723 51.86875,2.51445 58.38041,2.85733 6.51166,0.34288 22.56628,1.14293 35.5896,1.82869 13.13559,0.68576 24.3626,0.91435 25.03622,0.45718 1.79632,-1.14294 1.57178,-82.29114 -0.33681,-83.77695 -0.78589,-0.68576 -17.17732,-2.28587 -37.27365,-3.54309 -74.99638,-4.91461 -170.87499,-11.54362 -175.14125,-12.11509 -2.80675,-0.45717 -5.05215,-0.11429 -5.95031,0.80006 z m 27.61843,9.60063 c 2.2454,0.45717 2.46994,1.14293 2.46994,9.14346 v 8.57199 l -11.45154,-0.34288 -11.56382,-0.34288 -0.33681,-9.48634 -0.33681,-9.48634 9.31842,0.68576 c 5.16442,0.34288 10.44111,0.91435 11.90062,1.25723 z m 31.99696,2.40016 c 0.44908,0.22858 0.78589,4.34314 0.78589,9.02916 v 8.4577 h -4.37853 c -2.35767,0 -7.40983,-0.34288 -11.22701,-0.68576 l -6.84847,-0.80005 v -9.02917 -9.14346 l 10.44111,0.80006 c 5.61351,0.45717 10.66566,1.02864 11.22701,1.37152 z m 37.835,1.82869 17.40185,1.37152 0.33681,35.77378 0.22454,35.77379 -14.81964,-0.80005 c -8.19572,-0.34288 -18.7491,-1.02864 -23.35217,-1.48582 l -8.42025,-0.68576 -0.33681,-35.77378 -0.22454,-35.65949 5.83804,0.11429 c 3.25583,0 13.80921,0.68576 23.35217,1.37152 z m 51.75648,3.77167 c 1.1227,0.68576 2.35767,14.51525 1.45951,16.80111 -0.78589,2.17157 -4.4908,2.40016 -18.7491,1.25723 l -8.64479,-0.80005 v -9.60064 -9.71492 l 12.68652,0.80005 c 6.84847,0.45717 12.91105,1.02864 13.24786,1.25722 z m 33.90555,2.40016 c 0.44908,0.22859 0.78589,4.57173 0.78589,9.71493 v 9.14346 l -12.0129,-0.80005 c -6.7362,-0.45718 -12.46197,-1.02864 -12.91105,-1.37152 -0.56135,-0.22859 -0.89816,-4.57173 -0.89816,-9.71493 v -9.14346 l 12.12516,0.80005 c 6.62394,0.45718 12.34971,1.02864 12.91106,1.37152 z m 23.68897,1.02864 5.27669,0.80006 -0.33681,9.14345 -0.33681,9.14346 -9.54295,-0.22858 c -5.16442,-0.1143 -9.87976,-0.57147 -10.32884,-0.80005 -0.44908,-0.34288 -0.89816,-4.68603 -0.89816,-9.71493 v -9.02917 h 5.50123 c 2.91902,0 7.74663,0.34288 10.66565,0.68576 z m -176.93756,37.83107 0.22454,23.20153 h -9.20614 c -15.71781,0 -14.37057,2.28586 -14.37057,-24.23017 v -22.74436 l 11.56382,0.34288 11.45154,0.34288 z m 23.01535,-21.71572 7.5221,0.68576 v 22.74436 22.74435 l -10.8902,-0.34288 -11.00246,-0.34288 -0.33681,-23.20153 -0.22454,-23.08723 h 3.59264 c 2.02086,0 7.07301,0.34288 11.33927,0.80005 z m 97.33812,7.88623 c 0.33681,0.34288 0.67362,10.1721 0.89816,21.71572 l 0.33681,21.02996 h -7.18528 c -3.92945,0 -10.32884,-0.34288 -14.14603,-0.68576 l -6.84847,-0.80005 v -21.71572 -21.71572 l 13.1356,0.80006 c 7.29755,0.45717 13.4724,1.02863 13.80921,1.37151 z m 32.55831,2.17158 c 0.67362,0.45717 1.1227,9.02916 1.1227,21.71571 v 21.02996 l -11.45155,-0.57147 c -6.39939,-0.34288 -12.23743,-0.80005 -12.91105,-1.14293 -1.1227,-0.22859 -1.45951,-5.60037 -1.45951,-21.71572 v -21.37283 l 11.78835,0.68576 c 6.51167,0.34288 12.34971,1.02864 12.91106,1.37152 z m 25.70983,1.25722 3.48037,0.68576 v 21.25854 21.14426 l -9.54295,-0.68576 c -5.27669,-0.34288 -10.1043,-1.02864 -10.66565,-1.37152 -1.23497,-0.80006 -1.57178,-39.77405 -0.33681,-40.91699 0.89816,-1.02863 12.3497,-1.02863 17.06504,-0.11429 z"
     id="path21"
     style="fill:#f69037;fill-opacity:1;stroke:none;stroke-width:0.113277" /><path
     d="m 692.93445,432.50548 c -1.90859,3.4288 -1.68405,85.14847 0.22454,86.74857 1.34724,1.14294 104.41113,3.4288 181.54064,4.00027 l 37.61046,0.22858 0.33681,-41.83132 c 0.22454,-32.68787 -0.11227,-42.17421 -1.1227,-42.97426 -0.89816,-0.68576 -19.64726,-1.7144 -44.68348,-2.51446 -88.58105,-2.74303 -144.71606,-4.57173 -158.52527,-5.25749 -13.47241,-0.68576 -14.2583,-0.57146 -15.381,1.60011 z m 22.67855,6.62901 7.52209,0.68576 v 8.4577 8.4577 l -11.45154,-0.34288 -11.56382,-0.34288 -0.33681,-7.31477 c -0.22454,-4.00026 -0.11227,-8.00053 0.22454,-8.80058 0.67362,-1.7144 4.15399,-1.94298 15.60554,-0.80005 z m 34.35463,1.02864 3.48037,0.68576 v 8.57199 8.4577 l -10.8902,-0.34288 -11.00246,-0.34288 -0.33681,-8.91487 -0.33681,-8.80058 h 7.74663 c 4.26626,0 9.43069,0.34288 11.33928,0.68576 z m 57.70679,2.62874 c 0.44908,0.45717 0.67362,16.80111 0.56135,36.23096 l -0.33681,35.31661 -21.89266,-0.34288 c -12.01289,-0.11429 -22.56627,-0.45717 -23.23989,-0.80005 -1.1227,-0.34288 -1.45951,-8.80058 -1.45951,-36.57384 v -36.11666 l 22.79081,0.68576 c 12.46198,0.45717 23.01536,1.25722 23.57671,1.6001 z m 35.5896,2.40016 c 0.67362,1.25723 1.1227,5.25749 0.89816,8.91487 -0.44908,7.77194 -0.11227,7.65765 -16.27915,6.51472 l -11.56382,-0.80005 v -8.4577 -8.4577 h 12.91106 c 11.78835,0 12.91105,0.22858 14.03375,2.28586 z m 31.88469,-0.45717 c 1.45951,0.57146 1.79632,2.51445 1.79632,9.14346 v 8.4577 h -3.59264 c -2.02086,0 -7.85891,-0.34288 -12.91106,-0.80006 l -9.31841,-0.68576 v -8.3434 -8.4577 h 11.11473 c 6.17486,0 11.90063,0.34288 12.91106,0.68576 z m 29.86382,9.02916 v 8.572 h -10.1043 -10.1043 v -8.572 -8.57199 h 10.1043 10.1043 z m -181.87744,34.85944 v 24.00159 h -11.78835 -11.78836 v -24.00159 -24.00158 h 11.78836 11.78835 z m 30.31291,1.14294 v 24.00158 h -9.43069 c -5.16442,0 -10.21657,-0.34288 -11.227,-0.68576 -1.57178,-0.57147 -1.79632,-3.77168 -1.79632,-24.00158 v -23.31583 h 11.227 11.22701 z m 83.41663,-20.91567 7.52209,0.68576 v 22.63006 22.74436 h -14.03375 -14.03376 l -0.11227,-15.42959 c 0,-8.4577 -0.11227,-17.02969 -0.11227,-18.85838 0,-1.94299 0.11227,-5.48608 0.11227,-8.00053 l 0.11227,-4.57173 h 6.51166 c 3.48037,0 9.7675,0.34288 14.03376,0.80005 z m 36.60003,1.02864 3.48037,0.68576 v 22.74436 22.74435 h -8.64479 c -4.82762,0 -10.66566,-0.34288 -12.91106,-0.68576 l -4.26626,-0.80005 v -22.63006 -22.74436 h 9.43068 c 5.16442,0 11.00247,0.34288 12.91106,0.68576 z m 31.54787,23.31582 v 22.85865 h -10.1043 -10.1043 v -22.85865 -22.85865 h 10.1043 10.1043 z"
     id="path22"
     style="fill:#f69037;fill-opacity:1;stroke:none;stroke-width:0.113277" /><path
     d="m 1287.0674,612.06017 c -26.4958,0.45717 -31.997,0.91435 -33.4565,2.28586 -1.3472,1.48582 -1.4595,2.17158 -0.3368,3.77168 1.3472,1.82869 4.7153,1.94299 48.6129,1.14293 44.1221,-0.91434 47.1534,-1.02864 47.4902,-2.97162 0.2246,-1.14293 -0.2245,-2.74304 -0.8981,-3.65738 -1.4595,-1.8287 0.4491,-1.8287 -61.4117,-0.57147 z"
     id="path23"
     style="fill:#f69037;fill-opacity:1;stroke:none;stroke-width:0.113277" /><path
     d="m 1207.4679,616.17473 c -2.0208,1.02864 -4.9399,4.34314 -7.1853,8.22911 -2.1331,3.54309 -8.757,14.40095 -14.8196,24.00158 -6.0626,9.60063 -11.0025,18.40121 -11.0025,19.65844 0,2.85733 4.3786,5.71466 9.7675,6.51471 5.8381,0.80006 39.5191,-3.77167 45.3571,-6.05754 6.9608,-2.97162 7.7466,-5.71466 7.7466,-29.60195 0,-11.7722 -0.449,-21.02996 -1.1227,-22.40147 -1.1227,-1.94299 -2.4699,-2.17158 -13.2478,-2.17158 -8.4203,0 -13.0233,0.57147 -15.4933,1.8287 z m 22.0049,23.88728 c 0,18.51551 0,18.85839 -2.6944,20.57279 -3.3681,2.28586 -17.6264,4.11456 -18.0755,2.40016 -0.2246,-0.68576 -0.6736,-3.65739 -1.1227,-6.62901 -0.7859,-6.17184 -1.7963,-7.31477 -7.5221,-8.34341 -2.3577,-0.45717 -4.2663,-1.02864 -4.2663,-1.37152 0,-1.48581 11.3393,-19.54414 13.697,-21.71571 2.4699,-2.40016 5.838,-3.08592 15.8301,-3.54309 l 4.1539,-0.22859 z m -31.6601,16.34394 c 0.7859,0.57146 1.684,2.85733 2.1331,5.14319 l 0.6736,4.22885 h -7.522 -7.4099 l 2.2454,-4.45743 c 2.6945,-5.48608 6.1749,-7.20048 9.8798,-4.91461 z"
     id="path24"
     style="fill:#f69037;fill-opacity:1;stroke:none;stroke-width:0.113277" /><path
     d="m 1228.5747,684.06491 c -2.6945,1.7144 -3.5927,3.08592 -3.3681,4.91461 0.4491,3.4288 4.9399,3.77168 9.6552,0.80006 4.0417,-2.51445 4.6031,-5.02891 1.4595,-6.8576 -3.0313,-1.6001 -3.4804,-1.48581 -7.7466,1.14293 z"
     id="path25"
     style="fill:#f69037;fill-opacity:1;stroke:none;stroke-width:0.113277" /><path
     d="m 1499.1454,684.2935 c -0.8981,0.91435 -1.3472,6.05754 -1.3472,15.42959 0,11.7722 0.3368,14.28665 1.7963,14.85812 3.4804,1.37152 4.8276,-2.17157 5.6135,-15.31529 0.5614,-9.71493 0.4491,-13.25802 -0.6736,-14.62954 -1.684,-2.05728 -3.5926,-2.17157 -5.389,-0.34288 z"
     id="path26"
     style="fill:#f69037;fill-opacity:1;stroke:none;stroke-width:0.113277" /><path
     d="m 1330.5159,718.23859 c -3.0313,3.08592 -3.3681,4.11456 -3.3681,10.85786 0,9.02917 1.3472,12.91514 4.9398,14.40095 7.7467,2.97163 13.8093,-4.68602 12.6866,-15.88676 -1.235,-11.65791 -7.7467,-16.00105 -14.2583,-9.37205 z m 6.7362,11.77221 c 0,3.20021 -1.5718,5.1432 -2.8068,3.20021 -0.3368,-0.57147 -0.3368,-2.97162 0.1123,-5.25749 0.7859,-4.57173 2.6945,-3.3145 2.6945,2.05728 z"
     id="path27"
     style="fill:#f69037;fill-opacity:1;stroke:none;stroke-width:0.113277" /><path
     d="m 1169.6329,726.81059 c -6.1748,6.7433 -5.5012,21.48713 1.1227,24.57305 8.9816,4.11455 15.2687,-3.54309 13.3602,-16.34394 -1.0105,-6.40042 -3.4804,-9.60063 -8.1958,-10.51498 -2.919,-0.57146 -4.0417,-0.11429 -6.2871,2.28587 z m 7.073,11.42932 c 0,5.25749 -1.4595,7.77194 -2.6945,4.57173 -0.8981,-2.40016 -0.8981,-7.88623 0.1123,-8.80058 1.7963,-1.82869 2.5822,-0.45717 2.5822,4.22885 z"
     id="path28"
     style="fill:#f69037;fill-opacity:1;stroke:none;stroke-width:0.113277" /><path
     d="m 685.07555,728.18211 c -3.14356,4.00026 -3.25583,13.02943 -0.33681,15.65817 2.91902,2.74304 5.50123,2.40016 8.64479,-0.91434 5.38896,-5.37179 1.90859,-17.71546 -5.05215,-17.71546 -0.56135,0 -2.02086,1.37152 -3.25583,2.97163 z"
     id="path29"
     style="fill:#f69037;fill-opacity:1;stroke:none;stroke-width:0.113277" /><path
     d="m 531.93923,734.12536 c -4.93988,5.48607 -5.6135,16.00105 -1.34724,20.2299 3.59264,3.77168 6.7362,3.54309 10.77792,-0.45717 2.80675,-2.85733 3.25583,-4.22885 3.25583,-9.60064 0,-5.0289 -0.56135,-6.7433 -2.80675,-9.25775 -3.14356,-3.4288 -7.29755,-3.88597 -9.87976,-0.91434 z m 5.95031,9.82922 c 0,4.22885 -1.79632,6.629 -2.46994,3.3145 -0.56135,-2.85733 0.33681,-7.20048 1.45951,-7.20048 0.56135,0 1.01043,1.7144 1.01043,3.88598 z"
     id="path30"
     style="fill:#f69037;fill-opacity:1;stroke:none;stroke-width:0.113277" /><path
     d="m 1129.5525,77.396362 c -23.9135,8.572 -38.1718,26.744618 -40.0804,51.089088 -2.3576,30.97347 16.1669,58.06096 45.5816,66.86154 8.0835,2.40016 18.4123,2.40016 20.3209,0 2.3577,-2.85733 -0.6736,-4.68602 -11.1147,-6.629 -19.6473,-3.65739 -33.4565,-13.71519 -41.0908,-29.71625 -12.9111,-26.9732 -4.2663,-56.91803 20.3208,-70.061758 24.6994,-13.37231 56.3596,-2.28586 72.3019,25.258808 5.2767,9.02917 7.1853,10.74357 9.6553,8.57199 2.3576,-1.94298 1.9085,-4.45743 -1.7964,-12.22937 -4.0417,-8.11482 -13.6969,-18.629798 -22.5662,-24.687348 -15.0442,-10.0578 -36.9369,-13.71518 -51.532,-8.4577 z"
     id="path31"
     style="fill:#f69037;fill-opacity:1;stroke:none;stroke-width:0.113277" /><path
     d="m 1133.2574,94.426062 c -17.5141,5.600368 -29.7515,25.715978 -28.0675,46.060178 1.6841,20.57278 19.0859,38.40253 39.2945,40.34551 9.0939,0.80005 13.1356,-0.11429 13.1356,-3.08592 0,-2.74303 -3.1435,-4.57173 -8.0834,-4.57173 -5.389,0 -14.8197,-2.85733 -19.535,-5.71466 -5.5012,-3.54309 -12.2374,-12.45796 -14.4828,-19.54414 -2.47,-7.54336 -1.7963,-20.00132 1.3472,-27.43038 5.389,-12.34367 16.7282,-19.54415 30.762,-19.54415 10.7779,0 17.9632,3.65739 26.3834,13.48661 6.1749,7.08618 9.9921,9.02916 11.2271,5.71466 1.5717,-4.11456 -8.7571,-16.9154 -17.5142,-21.715718 -11.9006,-6.62901 -22.5662,-7.88623 -34.4669,-4.00026 z"
     id="path32"
     style="fill:#f69037;fill-opacity:1;stroke:none;stroke-width:0.113277" /><path
     d="m 1169.0716,139.68618 c -0.7859,1.48582 -1.1227,12.22938 -0.8982,29.94483 0.2245,22.51577 0.5614,27.88756 1.9086,28.8019 2.4699,1.60011 4.154,1.25723 5.9503,-1.48581 1.4595,-2.17157 1.7963,-6.62901 1.7963,-26.40174 v -23.773 l 11.0025,0.68576 c 5.9503,0.45718 11.5638,0.91435 12.3497,1.14294 1.0104,0.34288 1.3472,6.40042 1.3472,24.91592 0,25.03023 0.3368,27.0875 4.6031,27.0875 4.154,0 4.6031,-2.74303 5.1644,-30.05912 0.4491,-22.97294 0.3368,-26.97321 -1.2349,-28.45902 -1.6841,-1.82869 -6.3994,-2.40016 -29.4148,-3.88597 -10.6656,-0.68576 -11.5638,-0.57146 -12.5742,1.48581 z"
     id="path33"
     style="fill:#969696;fill-opacity:1;stroke:none;stroke-width:0.113277" /><path
     d="m 1233.1778,143.68645 c -0.7859,0.91434 -1.9086,8.68628 -2.47,18.17262 -1.4595,20.57279 -2.4699,24.45876 -8.1957,29.83054 -5.6135,5.25749 -5.6135,9.25775 -0.2245,9.82922 9.992,1.02864 17.1773,-16.00105 17.2895,-40.5741 0,-4.45744 0.4491,-8.4577 1.0105,-8.80058 0.4491,-0.34288 3.4803,-0.34288 6.7362,0.11429 l 5.7257,0.68576 v 24.11588 c 0,25.03022 0.3369,26.9732 4.7154,26.9732 3.7049,0 4.2663,-3.88597 4.2663,-30.63059 0,-23.6587 -0.2246,-26.28745 -2.0209,-28.00184 -2.919,-2.62875 -24.924,-4.11456 -26.8325,-1.7144 z"
     id="path34"
     style="fill:#969696;fill-opacity:1;stroke:none;stroke-width:0.113277" /><path
     d="m 1275.8404,145.40085 c -1.1227,0.34288 -1.4595,7.42906 -1.4595,29.48765 0,28.23044 0.1122,29.14478 2.3576,30.28771 1.7963,1.02864 2.6945,0.91435 4.3786,-0.57146 1.684,-1.60011 1.9085,-3.08592 1.4595,-10.85786 -0.3368,-4.91461 -0.3368,-10.28639 0.1122,-11.8865 0.6737,-2.62874 1.3473,-2.97162 5.1645,-2.97162 4.1539,0 4.4908,0.22858 4.4908,3.08591 0.1122,4.57173 4.0417,12.80085 8.1957,17.25828 4.7153,5.02891 10.8902,8.22912 17.5141,9.02917 7.7466,0.91435 12.6865,-1.14293 18.6368,-7.88623 8.1957,-9.37205 10.5534,-21.37284 6.1749,-33.14504 -4.6031,-12.45797 -14.9319,-20.3442 -26.7203,-20.3442 -10.6656,0 -18.4123,6.05754 -22.454,17.37257 -1.7963,5.25749 -2.0209,5.48608 -6.0626,5.48608 h -4.2662 V 159.6875 c 0,-12.57226 -2.1332,-16.57252 -7.5221,-14.28665 z m 51.0828,13.82948 c 5.7258,4.22885 8.4203,11.42932 7.8589,21.37284 -0.4491,9.37204 -2.3576,13.25801 -8.6448,17.02969 -8.3079,4.91461 -20.7699,-1.82869 -23.6889,-13.02943 -1.6841,-6.17184 -0.8982,-15.54388 1.684,-20.45849 4.0417,-8.11482 15.0442,-10.40069 22.7908,-4.91461 z"
     id="path35"
     style="fill:#969696;fill-opacity:1;stroke:none;stroke-width:0.113277" /><path
     d="m 1365.6564,153.85855 c -6.1749,3.08591 -9.6552,7.42906 -12.5743,15.31529 -4.603,12.57226 -2.2454,23.773 7.1853,33.37363 6.3994,6.40042 11.0025,8.34341 20.5454,8.34341 6.9608,0 14.3706,-3.31451 16.1669,-7.42907 2.6945,-6.05754 -2.2454,-8.3434 -8.6448,-4.00026 -4.7153,3.20021 -13.2478,2.97163 -18.9736,-0.34288 -12.2374,-7.08618 -12.9111,-28.91619 -1.1227,-36.34525 5.5012,-3.4288 14.3706,-2.62875 19.9841,1.6001 7.9711,6.28613 12.911,2.51446 6.6239,-5.0289 -6.3994,-7.77194 -19.7595,-10.28639 -29.1902,-5.48607 z"
     id="path36"
     style="fill:#f69037;fill-opacity:1;stroke:none;stroke-width:0.113277" /><path
     d="m 1143.5863,297.86804 c -0.3368,0.91434 -0.4491,15.77246 -0.3368,33.03074 l 0.3368,31.43065 10.8902,1.02864 c 8.4202,0.80005 11.3392,0.68576 12.6865,-0.45718 1.4595,-1.25722 1.684,-5.94325 1.684,-32.00211 0,-23.88728 -0.3368,-30.85917 -1.4595,-31.77352 -0.7859,-0.68576 -6.3994,-1.6001 -12.3497,-2.05728 -8.757,-0.68576 -11.0024,-0.45717 -11.4515,0.80006 z m 17.4018,32.0021 v 25.14452 l -5.2767,-0.34288 -5.3889,-0.34288 -0.3368,-24.91593 -0.2246,-24.80163 h 5.6135 5.6135 z"
     id="path38"
     style="fill:#f69037;fill-opacity:1;stroke:none;stroke-width:0.113277" /><path
     d="m 1203.2031,302.65673 c -0.3368,0.91434 -0.4491,15.77247 -0.3368,33.03075 l 0.3368,31.43064 10.8902,1.02864 c 8.4203,0.80005 11.3393,0.68576 12.6865,-0.45717 1.4595,-1.25723 1.6841,-5.94325 1.6841,-32.00211 0,-23.88729 -0.3368,-30.85918 -1.4595,-31.77353 -0.7859,-0.68575 -6.3994,-1.6001 -12.3497,-2.05727 -8.7571,-0.68576 -11.0025,-0.45718 -11.4516,0.80005 z m 17.4019,32.00211 v 25.14451 l -5.2767,-0.34288 -5.389,-0.34288 -0.3368,-24.91593 -0.2245,-24.80163 h 5.6135 5.6135 z"
     id="path38-1"
     style="fill:#f69037;fill-opacity:1;stroke:none;stroke-width:0.113277" /><path
     d="m 1204.484,393.27893 c -0.3368,0.91435 -0.4491,15.77247 -0.3368,33.03075 l 0.3368,31.43064 10.8902,1.02864 c 8.4202,0.80005 11.3393,0.68576 12.6865,-0.45717 1.4595,-1.25723 1.6841,-5.94325 1.6841,-32.00211 0,-23.88729 -0.3368,-30.85918 -1.4595,-31.77353 -0.7859,-0.68575 -6.3994,-1.6001 -12.3498,-2.05727 -8.757,-0.68576 -11.0024,-0.45718 -11.4515,0.80005 z m 17.4019,32.00211 v 25.14451 l -5.2767,-0.34288 -5.389,-0.34288 -0.3368,-24.91592 -0.2245,-24.80164 h 5.6135 5.6135 z"
     id="path38-5"
     style="fill:#f69037;fill-opacity:1;stroke:none;stroke-width:0.113277" /><path
     d="m 1173.5088,298.33465 c -1.9086,1.94298 -1.9086,239.90152 0,241.84451 1.6841,1.7144 22.9031,1.94298 23.9135,0.22858 0.3368,-0.57146 0.5614,-54.63217 0.5614,-120.23649 0,-92.92041 -0.3368,-119.43644 -1.4595,-120.46508 -2.0209,-1.94299 -21.3313,-3.08592 -23.0154,-1.37152 z m 16.616,8.57199 c 0.3368,0.34288 0.5613,11.65791 0.5613,25.25881 v 24.80163 l -5.2767,0.34288 -5.3889,0.34288 v -26.17315 -26.17315 l 4.8276,0.45717 c 2.5822,0.34288 4.9399,0.80005 5.2767,1.14293 z m 0.5613,85.26276 c 0,14.40095 -0.449,26.40174 -0.8981,26.74462 -0.4491,0.22859 -2.9191,0.22859 -5.2767,-0.22858 l -4.4908,-0.80006 v -26.17315 -26.28744 l 5.3889,0.34287 5.2767,0.34288 z m -0.7859,35.6595 c 0.4491,0.45717 0.7859,12.11508 0.7859,26.05886 v 25.3731 h -5.0521 -5.0522 l -0.3368,-26.74462 -0.2245,-26.74462 4.603,0.68576 c 2.47,0.34288 4.9399,0.91434 5.2767,1.37152 z m 1.3473,82.8626 v 22.85865 h -5.6135 -5.6135 V 510.6915 487.83285 h 5.6135 5.6135 z"
     id="path39"
     style="fill:#f69037;fill-opacity:1;stroke:none;stroke-width:0.113277" /><path
     d="m 1268.7674,306.78291 c -1.3473,2.74304 -1.5718,78.86234 -0.1123,81.03391 0.8981,1.60011 23.3521,2.85733 165.0369,9.48634 51.3074,2.28587 53.3283,2.40016 54.7878,0.34288 1.684,-2.28587 2.0209,-37.2596 0.6736,-63.66134 -0.6736,-13.4866 -0.8981,-14.62953 -3.0313,-15.08671 -1.3472,-0.34288 -15.4932,-1.37152 -31.5479,-2.28586 -53.2159,-3.20021 -102.8393,-6.28613 -143.1442,-9.14346 -21.8927,-1.60011 -40.1927,-2.85733 -40.6418,-2.85733 -0.4491,0 -1.3472,1.02864 -2.0208,2.17157 z m 30.3129,9.94351 c 1.2349,3.20021 1.4595,9.60063 0.449,12.34367 -0.5613,1.37152 -2.3576,1.82869 -8.1957,1.82869 -4.0417,0 -9.3184,-0.34288 -11.5638,-0.68576 l -4.2662,-0.80005 v -7.77194 -7.88623 h 11.227 c 11.1147,0 11.3392,0 12.3497,2.97162 z m 31.211,-0.11429 c 0.8982,0.34288 1.3473,3.08592 1.3473,8.68629 v 8.22911 l -11.1148,-0.68576 c -6.1748,-0.34288 -11.7883,-0.91435 -12.3497,-1.37152 -1.3472,-0.80005 -1.684,-14.51524 -0.449,-15.88676 0.6736,-0.68576 19.6472,0.11429 22.5662,1.02864 z m 23.689,1.25722 6.8485,0.80006 v 8.57199 8.57199 l -7.5221,-0.68576 c -4.2663,-0.45717 -8.9816,-0.80005 -10.6657,-0.80005 h -3.1435 v -8.57199 -8.572 h 3.8172 c 2.0208,0 6.8484,0.34288 10.6656,0.68576 z m 31.5479,3.77168 c 0.6736,1.37152 1.1227,14.28666 1.1227,33.8308 v 31.54494 l -8.6448,-0.34288 -8.7571,-0.34288 -0.3368,-33.48792 -0.2245,-33.37363 h 7.7466 c 6.6239,0 8.0835,0.34288 9.0939,2.17157 z m 27.2816,0.11429 h 3.1436 l -0.3369,8.22912 -0.3368,8.22911 -10.1043,-0.34288 c -5.5012,-0.11429 -10.4411,-0.57146 -10.8902,-0.91434 -1.1227,-0.68576 -1.1227,-14.51525 0,-15.65818 0.4491,-0.57146 4.0418,-0.57146 8.0835,-0.22858 4.0417,0.34287 8.757,0.68575 10.4411,0.68575 z m 31.4356,1.8287 4.154,0.80005 v 7.77194 7.88623 h -7.1853 c -3.9294,0 -9.4307,-0.34288 -12.3497,-0.68576 l -5.1644,-0.80005 v -7.77194 -7.88623 h 8.1957 c 4.3785,0 9.992,0.34288 12.3497,0.68576 z m 34.2424,2.28586 3.5926,0.57147 v 7.31477 c 0,4.00026 -0.3368,7.54335 -0.7859,7.77194 -0.5613,0.22858 -6.2871,0.22858 -12.911,-0.1143 l -12.1252,-0.57146 v -7.65765 c 0,-4.22885 0.2245,-7.88623 0.4491,-8.11482 0.6736,-0.57147 16.6159,0 21.7804,0.80005 z m -179.0707,14.05807 c 0.4491,0.45717 0.6736,10.28639 0.5613,21.9443 l -0.3368,21.02996 -10.1043,-0.34288 c -15.4933,-0.57146 -14.0337,1.7144 -14.0337,-22.40147 0,-11.42933 0.3368,-21.25855 0.7858,-21.71572 1.0105,-1.02864 21.8927,0.34288 23.1277,1.48581 z m 23.0153,0.91435 9.2062,0.68576 v 21.71571 21.71572 l -11.4516,-0.80005 c -6.2871,-0.34288 -11.6761,-1.02864 -12.0129,-1.37152 -0.3368,-0.34288 -0.8981,-10.05781 -1.1227,-21.71572 l -0.3368,-21.02996 h 3.1436 c 1.7963,0 7.4098,0.34288 12.5742,0.80006 z m 34.916,2.17157 3.4804,0.68576 v 21.02995 21.02996 h -8.0835 c -14.3705,0 -13.2478,1.94299 -13.2478,-22.40147 v -21.02996 h 7.1853 c 3.9294,0 8.757,0.34288 10.6656,0.68576 z m 58.9418,4.57173 c 0.3368,1.02864 0.6736,10.51498 0.6736,21.14425 v 19.31556 h -10.5534 c -6.1748,0 -11.0025,-0.45718 -11.3393,-1.14294 -0.449,-0.68575 -1.0104,-10.17209 -1.3472,-21.14425 l -0.6736,-20.00131 h 11.227 c 9.3184,0 11.4515,0.34288 12.0129,1.82869 z m 23.4644,0 8.6448,0.80005 v 21.14425 21.14425 l -11.4515,-0.91434 c -6.3994,-0.45718 -11.9007,-1.02864 -12.3497,-1.37152 -0.5614,-0.22859 -0.8982,-9.71493 -0.8982,-21.02996 v -20.45849 h 3.7049 c 2.1331,0 7.6344,0.34288 12.3497,0.68576 z m 42.1013,22.97294 0.2245,20.91566 h -8.6448 c -4.8276,0 -10.6656,-0.34288 -12.911,-0.68575 l -4.2663,-0.80006 V 369.5299 349.07141 l 12.6865,0.34288 12.5743,0.34288 z"
     id="path40"
     style="fill:#f69037;fill-opacity:1;stroke:none;stroke-width:0.113277" /><path
     d="m 1143.9231,393.3029 c -0.5614,0.45717 -0.8982,14.85812 -0.8982,32.1164 v 31.20205 l 3.0313,1.25723 c 1.5718,0.57147 7.2976,0.91435 12.5743,0.80005 l 9.6552,-0.34288 0.3368,-31.31635 c 0.1123,-17.71545 -0.2246,-31.88781 -0.7859,-32.45928 -1.235,-1.25722 -22.9031,-2.51445 -23.9135,-1.25722 z m 15.2687,8.00052 c 1.5718,0.57147 1.7963,3.88597 1.7963,25.14452 v 24.45875 h -4.2662 c -2.3577,0 -4.8276,-0.57146 -5.6135,-1.37152 -1.0105,-1.02864 -1.3473,-8.22911 -1.3473,-25.14451 v -23.773 h 3.8172 c 2.1331,0 4.6031,0.34288 5.6135,0.68576 z"
     id="path41"
     style="fill:#f69037;fill-opacity:1;stroke:none;stroke-width:0.113277" /><path
     d="m 1269.5532,440.27742 c -0.449,0.34288 -0.7858,18.28692 -0.7858,39.77405 0,30.402 0.3368,39.43117 1.4595,40.34552 1.7963,1.6001 30.0883,2.51445 149.3191,5.0289 41.4276,0.80005 67.4743,0.91434 68.0356,0.22859 0.5614,-0.57147 1.235,-17.82975 1.6841,-38.28824 0.5613,-32.45928 0.4491,-37.48819 -1.0104,-38.74541 -1.235,-1.02864 -10.8902,-1.7144 -33.4565,-2.40016 -29.527,-0.91435 -83.1921,-2.97163 -142.0216,-5.60037 -29.4147,-1.37152 -42.2135,-1.48581 -43.224,-0.34288 z m 30.6498,9.48634 c 0.6736,0.91435 1.0104,4.57173 0.8981,8.00053 l -0.3368,6.28613 -11.5638,-0.1143 c -8.8693,0 -11.9006,-0.45717 -12.6865,-1.7144 -1.235,-1.94298 -1.3473,-12.91513 -0.1123,-14.05807 0.4491,-0.45717 5.7258,-0.68575 11.7884,-0.45717 8.1957,0.22859 11.227,0.80005 12.0129,2.05728 z m 27.9552,-0.45717 3.4804,0.68576 v 7.88623 7.88623 h -8.8694 c -4.9398,0 -10.2165,-0.45717 -11.7883,-1.14293 -2.6945,-1.02864 -2.919,-1.6001 -2.919,-8.57199 v -7.42906 h 8.3079 c 4.4908,0 9.8798,0.34288 11.7884,0.68576 z m 30.3129,1.14293 3.4804,0.68576 v 7.88623 7.88624 h -9.4307 c -13.1356,0 -13.0233,0.11429 -13.0233,-9.25776 v -7.88623 h 7.7466 c 4.2663,0 9.3184,0.34288 11.227,0.68576 z m 25.7098,1.14293 2.47,0.68576 v 32.45928 32.45929 h -4.9399 c -2.6945,0 -6.5117,-0.34288 -8.4203,-0.68576 l -3.4803,-0.80006 v -32.34499 -32.45928 h 5.9503 c 3.1435,0 6.9607,0.34288 8.4202,0.68576 z m 30.9866,1.7144 c 0.2245,0.22859 0.6736,3.65738 1.0104,7.65765 l 0.7859,7.20047 -11.0025,-0.34288 -10.8902,-0.34288 -0.3368,-7.88623 -0.3368,-7.88623 10.2166,0.57146 c 5.6135,0.34288 10.3288,0.80005 10.5534,1.02864 z m 33.0074,8.22911 0.3368,7.77195 -12.1252,-0.34288 -12.1252,-0.34288 -0.3368,-7.77195 -0.3368,-7.77194 12.1252,0.34288 12.1251,0.34288 z m 31.4356,-6.51471 c 2.2454,0.68576 2.4699,1.37152 2.4699,8.00053 v 7.42906 l -12.5742,-0.34288 -12.6866,-0.34288 -0.3368,-7.77194 -0.3368,-7.65765 h 10.4411 c 5.7258,0 11.5639,0.34288 13.0234,0.68576 z m -178.8462,38.74541 v 20.57278 l -11.6761,-0.22858 c -6.3994,-0.1143 -11.7883,-0.45718 -11.9006,-0.57147 -0.1123,-0.22859 -0.6736,-9.48634 -1.1227,-20.68708 l -0.7859,-20.34419 12.7988,0.34288 12.6865,0.34288 z m 30.6497,-19.31556 c 1.0105,0.22859 1.3473,5.37178 1.3473,20.45849 v 20.11561 l -12.0129,-0.34288 -12.1252,-0.34288 -0.3368,-19.42985 c -0.1123,-10.62927 0,-20.00132 0.2245,-20.80137 0.4491,-1.14293 3.1436,-1.25722 11.0025,-0.80005 5.7258,0.34288 11.1147,0.80005 11.9006,1.14293 z m 25.8221,0.45717 h 4.7154 v 20.57279 20.68708 l -10.8902,-0.34288 -11.0025,-0.34288 -0.3368,-19.42986 c -0.1123,-10.62927 0,-20.11561 0.3368,-21.02995 0.4491,-1.14294 1.9086,-1.37152 6.5117,-0.80006 3.1435,0.34288 7.9712,0.68576 10.6656,0.68576 z m 59.5031,22.0586 0.2246,20.3442 -10.8902,-0.34288 -11.0025,-0.34288 -0.3368,-20.3442 -0.2245,-20.3442 10.8902,0.34288 11.0024,0.34288 z m 31.4357,1.02864 0.2245,20.3442 h -11.1147 c -6.1749,0 -11.4516,-0.45718 -11.9007,-1.02864 -0.3368,-0.57147 -0.8981,-9.82922 -1.3472,-20.68708 l -0.6736,-19.54414 12.2374,0.34288 12.2374,0.34288 z m 33.681,0.57147 0.2245,19.77273 h -12.911 -12.9111 v -20.00132 -20.11561 l 12.6865,0.34288 12.5743,0.34288 z"
     id="path42"
     style="fill:#f69037;fill-opacity:1;stroke:none;stroke-width:0.113277" /><path
     d="m 270.68688,258.77975 c 0,14.28665 -0.33681,29.14477 -0.67362,32.80216 -1.1227,11.31503 -3.3681,10.51498 40.19267,12.68655 20.76995,0.91434 38.62089,1.48581 39.51905,1.14293 1.57178,-0.68576 1.79632,-4.80032 1.79632,-33.8308 0,-20.57278 -0.44908,-33.37363 -1.1227,-33.8308 -1.1227,-0.68576 -63.88165,-5.1432 -73.76141,-5.1432 h -5.95031 z m 24.47486,9.48634 0.22454,27.20179 h -6.39939 c -3.59264,0 -7.63436,-0.34288 -8.9816,-0.68576 l -2.58221,-0.68576 v -26.85891 -26.74462 l 8.75706,0.34288 8.64479,0.34288 z m 19.75953,-25.83028 5.16442,0.80005 v 26.74462 26.74462 l -8.08344,-0.34288 -8.19572,-0.34288 -0.33681,-27.20179 -0.22454,-27.0875 h 3.14357 c 1.79632,0 5.6135,0.34288 8.53252,0.68576 z m 24.02578,1.60011 h 4.71534 v 26.85891 26.85891 h -7.8589 -7.8589 v -26.63032 c 0,-14.74383 0.33681,-27.0875 0.78589,-27.54468 0.44908,-0.45717 1.90859,-0.57146 3.14356,-0.22858 1.23497,0.34288 4.37853,0.68576 7.07301,0.68576 z"
     id="path43"
     style="fill:#f69037;fill-opacity:1;stroke:none;stroke-width:0.113277" /><path
     d="m 991.25808,319.02586 c 0,14.28666 -0.33681,29.14478 -0.67362,32.80217 -1.1227,11.31503 -3.3681,10.51497 40.19264,12.68655 20.7699,0.91434 38.6209,1.48581 39.519,1.14293 1.5718,-0.68576 1.7964,-4.80032 1.7964,-33.8308 0,-20.57279 -0.4491,-33.37363 -1.1227,-33.8308 -1.1227,-0.68576 -63.8816,-5.1432 -73.76141,-5.1432 h -5.95031 z m 24.47482,9.48634 0.2246,27.2018 h -6.3994 c -3.5926,0 -7.6344,-0.34288 -8.9816,-0.68576 l -2.58222,-0.68576 v -26.85892 -26.74461 l 8.75702,0.34288 8.6448,0.34287 z m 19.7595,-25.83027 5.1645,0.80005 v 26.74462 26.74462 l -8.0835,-0.34288 -8.1957,-0.34288 -0.3368,-27.20179 -0.2245,-27.0875 h 3.1436 c 1.7963,0 5.6134,0.34288 8.5324,0.68576 z m 24.0258,1.60011 h 4.7154 v 26.85891 26.85891 h -7.8589 -7.8589 v -26.63032 c 0,-14.74383 0.3368,-27.0875 0.7858,-27.54468 0.4491,-0.45717 1.9086,-0.57146 3.1436,-0.22858 1.235,0.34288 4.3785,0.68576 7.073,0.68576 z"
     id="path43-7"
     style="fill:#f69037;fill-opacity:1;stroke:none;stroke-width:0.113277" /><path
     d="m 987.85905,466.25469 c 0,14.28665 -0.33681,29.14477 -0.67362,32.80216 -1.1227,11.31503 -3.3681,10.51498 40.19267,12.68655 20.7699,0.91434 38.6209,1.48581 39.519,1.14293 1.5718,-0.68576 1.7963,-4.80032 1.7963,-33.8308 0,-20.57278 -0.449,-33.37363 -1.1227,-33.8308 -1.1227,-0.68576 -63.8816,-5.1432 -73.76134,-5.1432 h -5.95031 z m 24.47485,9.48634 0.2246,27.20179 h -6.3994 c -3.5927,0 -7.6344,-0.34288 -8.98164,-0.68576 l -2.58221,-0.68576 v -26.85891 -26.74462 l 8.75705,0.34288 8.6448,0.34288 z m 19.7595,-25.83028 5.1644,0.80006 v 26.74461 26.74462 l -8.0834,-0.34288 -8.1957,-0.34288 -0.3368,-27.20179 -0.2245,-27.0875 h 3.1435 c 1.7963,0 5.6135,0.34288 8.5325,0.68576 z m 24.0258,1.60011 h 4.7153 v 26.85891 26.85891 h -7.8589 -7.8589 v -26.63032 c 0,-14.74383 0.3368,-27.0875 0.7859,-27.54468 0.4491,-0.45717 1.9086,-0.57146 3.1436,-0.22858 1.2349,0.34288 4.3785,0.68576 7.073,0.68576 z"
     id="path43-1"
     style="fill:#f69037;fill-opacity:1;stroke:none;stroke-width:0.113277" /><path
     d="m 587.28836,249.63629 c -0.67362,1.37152 -1.1227,12.57225 -1.1227,28.45901 0,20.68708 0.33681,26.51604 1.57178,27.54468 0.78589,0.68576 7.63436,1.6001 15.15645,2.05728 11.227,0.57146 14.03375,0.45717 14.81964,-0.91435 1.23497,-2.05728 1.34724,-53.71783 0,-55.66081 -0.56135,-1.02864 -4.93988,-1.94299 -12.57424,-2.62875 -16.27915,-1.25722 -16.50369,-1.25722 -17.85093,1.14294 z m 23.35216,28.91619 0.22454,21.48713 h -3.14356 c -1.79632,0 -5.6135,-0.34288 -8.53252,-0.68576 l -5.16442,-0.80005 v -21.02996 -21.02996 l 8.19571,0.34288 8.08344,0.34288 z"
     id="path2"
     style="fill:#f69037;fill-opacity:1;stroke:none;stroke-width:0.113277" /><path
     d="m 587.06382,340.728 c -0.56135,0.45718 -0.89816,13.02943 -0.89816,27.88756 0,21.83001 0.33681,27.43037 1.57178,28.45901 0.89816,0.68576 7.52209,1.60011 14.70737,2.05728 12.01289,0.68576 13.36013,0.57147 14.70737,-1.37152 2.13313,-2.97162 2.2454,-53.37494 0.22454,-55.20363 -1.79632,-1.37152 -29.1902,-3.08592 -30.3129,-1.8287 z m 17.9632,8.00053 5.83804,0.80005 v 21.02996 21.02996 l -8.08344,-0.34288 -8.19571,-0.34288 -0.33681,-21.48713 -0.22454,-21.37284 h 2.46994 c 1.45951,0 5.27669,0.34288 8.53252,0.68576 z"
     id="path3"
     style="fill:#f69037;fill-opacity:1;stroke:none;stroke-width:0.113277" /><path
     d="m 586.95155,433.07695 c -1.45952,3.77167 -0.89816,56.11798 0.56135,57.60379 1.57178,1.60011 28.51658,1.94299 29.41474,0.34288 0.33681,-0.57146 1.01043,-13.02943 1.34724,-27.65896 0.56135,-22.0586 0.44908,-27.0875 -0.89816,-28.8019 -1.34724,-1.82869 -3.70491,-2.28587 -15.60553,-2.74304 -12.68651,-0.57147 -14.14602,-0.45717 -14.81964,1.25723 z m 23.35216,28.6876 v 21.71572 l -8.08344,0.34288 -8.19571,0.34288 v -22.40148 -22.40148 l 8.19571,0.34288 8.08344,0.34288 z"
     id="path4"
     style="fill:#f69037;fill-opacity:1;stroke:none;stroke-width:0.113277" /><path
     d="m 587.5129,526.56882 c -1.01043,1.37152 -1.34724,8.34341 -1.1227,28.45902 l 0.33681,26.74462 h 15.15645 15.15645 l 0.33681,-26.74462 c 0.11227,-14.74383 -0.11227,-27.20179 -0.56135,-27.65897 -0.56135,-0.57146 -6.96074,-1.25722 -14.37056,-1.71439 -11.33927,-0.68576 -13.69694,-0.45718 -14.93191,0.91434 z m 20.76995,7.54336 c 1.01043,0.68575 1.45951,6.51471 1.68405,20.00131 0.33681,22.0586 0.56135,21.60143 -9.20614,21.14425 l -6.17485,-0.34288 -0.33681,-20.91566 -0.22454,-20.80137 h 6.39939 c 3.59264,0 7.07301,0.45717 7.8589,0.91435 z"
     id="path5"
     style="fill:#f69037;fill-opacity:1;stroke:none;stroke-width:0.113277" /><path
     d="m 177.05367,267.12315 c -1.57178,2.17157 -1.79632,6.8576 -1.79632,32.11641 0,25.71598 0.22454,29.48765 1.79632,30.17341 0.89816,0.34288 2.58221,-0.22858 3.59264,-1.25722 1.68405,-1.7144 1.90859,-5.37179 1.90859,-32.45929 0,-27.43037 -0.22454,-30.51629 -1.90859,-30.85917 -1.01043,-0.22859 -2.58221,0.80005 -3.59264,2.28586 z"
     id="path6"
     style="fill:#f69037;fill-opacity:1;stroke:none;stroke-width:0.113277" /><path
     d="m 158.52911,284.72431 c -2.2454,2.85733 -2.35767,4.34315 -2.35767,28.68761 0,25.48739 0.56135,30.05912 3.92945,30.05912 3.36811,0 3.92946,-4.57173 3.92946,-31.77352 0,-22.0586 -0.33681,-27.65897 -1.57178,-28.68761 -1.23498,-1.02864 -2.02087,-0.68576 -3.92946,1.7144 z"
     id="path7"
     style="fill:#f69037;fill-opacity:1;stroke:none;stroke-width:0.113277" /><path
     d="m 177.05367,377.9876 c -1.57178,2.17157 -1.79632,6.97189 -1.79632,33.03075 0,26.40174 0.22454,30.63059 1.79632,32.00211 1.23497,1.02864 2.2454,1.14293 3.59264,0.22858 1.68405,-1.02863 1.90859,-4.57172 1.90859,-34.17368 0,-29.83053 -0.22454,-33.03074 -1.90859,-33.37362 -1.01043,-0.22859 -2.58221,0.80005 -3.59264,2.28586 z"
     id="path8"
     style="fill:#f69037;fill-opacity:1;stroke:none;stroke-width:0.113277" /><path
     d="m 159.20273,388.95975 c -1.68405,1.8287 -1.90859,5.82896 -1.90859,32.68787 0,26.17315 0.22454,30.5163 1.68405,31.08776 0.89816,0.45718 2.46994,0.1143 3.36811,-0.68576 2.35767,-2.05727 2.46994,-61.83264 0.22454,-63.88992 -1.23498,-0.91435 -2.02087,-0.80005 -3.36811,0.80005 z"
     id="path9"
     style="fill:#f69037;fill-opacity:1;stroke:none;stroke-width:0.113277" /><path
     d="m 178.0641,494.7953 c -2.02086,1.48581 -2.13313,3.54309 -2.35767,26.51603 -0.22454,27.88755 0.11227,32.00211 2.58221,32.91646 4.37853,1.82869 4.82761,-0.68576 4.82761,-30.17342 0,-30.17342 -0.44908,-32.68787 -5.05215,-29.25907 z"
     id="path10"
     style="fill:#f69037;fill-opacity:1;stroke:none;stroke-width:0.113277" /><path
     d="m 158.64138,500.28137 c -1.01043,1.02864 -1.34724,8.4577 -1.34724,28.00185 0,22.74436 0.22454,26.74462 1.68405,27.31609 0.89816,0.45717 2.46994,0.11429 3.36811,-0.68576 2.58221,-2.17158 2.02086,-55.20364 -0.56135,-55.77511 -1.01044,-0.11429 -2.35768,0.34288 -3.14357,1.14293 z"
     id="path11"
     style="fill:#f69037;fill-opacity:1;stroke:none;stroke-width:0.113277" /><path
     d="m 1365.6564,153.85855 c -6.1749,3.08591 -9.6552,7.42906 -12.5743,15.31529 -4.603,12.57226 -2.2454,23.773 7.1853,33.37363 6.3994,6.40042 11.0025,8.34341 20.5454,8.34341 6.9608,0 14.3706,-3.31451 16.1669,-7.42907 2.6945,-6.05754 -2.2454,-8.3434 -8.6448,-4.00026 -4.7153,3.20021 -13.2478,2.97163 -18.9736,-0.34288 -12.2374,-7.08618 -12.9111,-28.91619 -1.1227,-36.34525 5.5012,-3.4288 14.3706,-2.62875 19.9841,1.6001 7.9711,6.28613 12.911,2.51446 6.6239,-5.0289 -6.3994,-7.77194 -19.7595,-10.28639 -29.1902,-5.48607 z"
     id="path100"
     style="fill:#f69037;fill-opacity:1;stroke:none;stroke-width:0.113277" /><path
     d="m 1365.6564,153.85855 c -6.1749,3.08591 -9.6552,7.42906 -12.5743,15.31529 -4.603,12.57226 -2.2454,23.773 7.1853,33.37363 6.3994,6.40042 11.0025,8.34341 20.5454,8.34341 6.9608,0 14.3706,-3.31451 16.1669,-7.42907 2.6945,-6.05754 -2.2454,-8.3434 -8.6448,-4.00026 -4.7153,3.20021 -13.2478,2.97163 -18.9736,-0.34288 -12.2374,-7.08618 -12.9111,-28.91619 -1.1227,-36.34525 5.5012,-3.4288 14.3706,-2.62875 19.9841,1.6001 7.9711,6.28613 12.911,2.51446 6.6239,-5.0289 -6.3994,-7.77194 -19.7595,-10.28639 -29.1902,-5.48607 z"
     id="path101"
     style="fill:#969696;fill-opacity:1;stroke:none;stroke-width:0.113277" /></svg>
