<?xml version="1.0" encoding="UTF-8" standalone="no"?>
<svg
   viewBox="0 0 305 180"
   height="180"
   width="305"
   xml:space="preserve"
   id="svg2"
   version="1.1"
   xmlns="http://www.w3.org/2000/svg"
   xmlns:svg="http://www.w3.org/2000/svg"
   xmlns:rdf="http://www.w3.org/1999/02/22-rdf-syntax-ns#"
   xmlns:cc="http://creativecommons.org/ns#"
   xmlns:dc="http://purl.org/dc/elements/1.1/"><metadata
     id="metadata8"><rdf:RDF><cc:Work
         rdf:about=""><dc:format>image/svg+xml</dc:format><dc:type
           rdf:resource="http://purl.org/dc/dcmitype/StillImage" /></cc:Work></rdf:RDF></metadata><defs
     id="defs6"><rect
       x="386.51053"
       y="141.52168"
       width="170.73109"
       height="57.184635"
       id="rect1" /></defs><g
     transform="matrix(0.13333333,0,0,-0.13333333,-204.79635,246.76516)"
     id="g12"><path
       style="font-size:40px;line-height:1;font-family:Inter;-inkscape-font-specification:Inter;white-space:pre;fill:#222222;stroke-width:7.5"
       d="M 3050.9772,1433.2658 V 1215.0041 H 3024.61 v 194.8242 h -116.3085 v -194.8242 h -26.3673 v 218.2617 z m 29.0039,-218.2617 v 23.4375 h 5.8594 q 10.4004,0 16.5527,4.1015 6.2989,4.1016 9.668,15.2344 3.5156,11.2793 5.2734,32.8125 l 11.7188,142.6758 h 133.7402 v -218.2617 h -26.3671 v 194.8242 h -83.3497 l -9.8144,-120.5567 q -1.4649,-18.8964 -4.834,-32.8125 -3.2227,-13.916 -9.375,-23.1445 -6.0059,-9.2285 -15.9668,-13.7695 -9.9609,-4.541 -24.9024,-4.541 z m 300.293,121.4355 v -23.4375 h -60.9375 v 23.4375 z m -47.7539,96.8262 v -218.2617 h -26.3672 v 218.2617 z m 139.3066,-221.7773 q -28.8574,0 -51.2695,14.5019 -22.4121,14.502 -35.1562,39.8437 -12.7442,25.4883 -12.7442,58.1544 0,32.9589 12.7442,58.3008 12.7441,25.4882 35.1562,39.9902 22.4121,14.5019 51.2695,14.5019 29.0039,0 51.2695,-14.5019 22.4121,-14.502 35.1563,-39.9902 12.7441,-25.3419 12.7441,-58.3008 0,-32.6661 -12.7441,-58.1544 -12.7442,-25.3417 -35.1563,-39.8437 -22.2656,-14.5019 -51.2695,-14.5019 z m 0,24.6093 q 19.7754,0 36.3281,10.1074 16.5528,10.2539 26.5137,29.8829 9.961,19.6289 9.961,47.9004 0,28.4179 -9.961,48.0468 -9.9609,19.7754 -26.5137,29.8828 -16.5527,10.2539 -36.3281,10.2539 -19.7753,0 -36.3281,-10.2539 -16.5528,-10.1074 -26.5137,-29.8828 -9.9609,-19.6289 -9.9609,-48.0468 0,-28.2715 9.9609,-47.9004 9.9609,-19.629 26.5137,-29.8829 16.5528,-10.1074 36.3281,-10.1074 z m 226.4649,-24.6093 q -30.1758,0 -52.8809,14.3554 -22.7051,14.5019 -35.4492,39.8438 -12.5976,25.4883 -12.5976,58.3008 0,33.1054 12.5976,58.4472 12.5976,25.4883 35.3027,39.8438 22.8516,14.5019 53.0274,14.5019 17.1386,0 32.0801,-5.1269 15.0879,-5.127 26.9531,-14.9414 12.0117,-9.668 19.9219,-23.2911 7.9101,-13.623 10.9863,-30.7617 h -26.9532 q -2.6367,11.8653 -8.3496,21.0938 -5.7129,9.2285 -13.916,15.5273 -8.2031,6.4454 -18.6034,9.668 -10.254,3.2226 -22.1192,3.2226 -22.9981,0 -39.6973,-11.2793 -16.6992,-11.1328 -25.7812,-31.0546 -9.0821,-19.7754 -9.0821,-45.8496 0,-25.9278 9.0821,-45.7032 9.082,-19.7754 25.7812,-31.0547 16.6992,-11.1328 39.6973,-11.1328 11.8652,0 22.1192,3.2227 10.2538,3.2226 18.4569,9.5215 8.2032,6.2988 13.9161,15.3808 5.8593,9.2286 8.6426,21.0938 h 26.8066 q -2.9297,-16.9922 -10.9863,-30.6152 -7.9102,-13.6231 -19.9219,-23.2911 -11.8652,-9.6679 -26.9531,-14.7949 -14.9415,-5.1269 -32.0801,-5.1269 z"
       id="text1"
       aria-label="ПЛЮС" /><g
       id="g2"><g
         transform="scale(1.00025,0.999753)"
         id="g456"
         style="fill:#0080ff;fill-opacity:1;stroke:none"><path
           id="path458"
           style="fill:#0080ff;fill-opacity:1;stroke:none;stroke-width:7.49999;stroke-linecap:butt;stroke-linejoin:miter;stroke-miterlimit:10;stroke-dasharray:none;stroke-opacity:1"
           d="m 3206.45,1550.65 c -48.99,149.15 -188.23,249.98 -345.22,249.98 -200.67,0 -363.35,-162.68 -363.35,-363.36 0,-200.67 162.68,-363.35 363.35,-363.35 1.63,0 3.26,0.01 4.88,0.03 v 0 h 927.62 v 23.4 h -928.62 c -1.29,-0.01 -2.59,-0.02 -3.87,-0.02 -187.75,0 -339.95,152.2 -339.95,339.95 0,187.74 152.2,339.94 339.95,339.94 147.03,0 277.4,-94.53 323.1,-234.28 h 0.01 z" /></g><g
         transform="scale(1.00025,0.999753)"
         id="g460"
         style="fill:#0080ff;fill-opacity:1;stroke:none"><path
           id="path462"
           style="fill:#0080ff;fill-opacity:1;stroke:none;stroke-width:7.49999;stroke-linecap:butt;stroke-linejoin:miter;stroke-miterlimit:10;stroke-dasharray:none;stroke-opacity:1"
           d="m 3162.24,1535.23 -22.1,-7.7 c -39.13,120.95 -151.77,202.9 -278.9,202.9 -161.89,0 -293.13,-131.25 -293.13,-293.14 0,-161.89 131.24,-293.13 293.13,-293.13 0.59,0 1.17,0.01 1.75,0.01 v 0 h 930.74 v -23.41 h -929.66 c -0.94,0 -1.89,-0.01 -2.83,-0.01 -174.82,0 -316.54,141.72 -316.54,316.54 0,174.81 141.72,316.54 316.54,316.54 137.08,0 258.59,-88.24 301,-218.6 z" /></g><g
         transform="scale(1.00025,0.999753)"
         id="g464"
         style="fill:#0080ff;fill-opacity:1;stroke:none"><path
           id="path466"
           style="fill:#0080ff;fill-opacity:1;stroke:none;stroke-width:7.49999;stroke-linecap:butt;stroke-linejoin:miter;stroke-miterlimit:10;stroke-dasharray:none;stroke-opacity:1"
           d="m 3793.73,1050.54 h -926.64 c -1.95,-0.03 -3.91,-0.04 -5.86,-0.04 -213.6,0 -386.77,173.16 -386.77,386.76 0,213.6 173.17,386.77 386.77,386.77 166.94,0 315.05,-107.13 367.32,-265.68 v 0 l 22.34,7.37 c -55.44,168.19 -212.56,281.83 -389.66,281.83 -226.59,0 -410.29,-183.69 -410.29,-410.29 0,-226.59 183.7,-410.28 410.29,-410.28 2.01,0 4.02,0.01 6.03,0.04 v 0 h 926.47 z" /></g></g><g
       id="g1"><g
         transform="scale(1.00025,0.999753)"
         id="g468"
         style="fill:#0080ff;fill-opacity:1;stroke:none"><path
           id="path470"
           style="fill:#0080ff;fill-opacity:1;stroke:none;stroke-width:7.49999;stroke-linecap:butt;stroke-linejoin:miter;stroke-miterlimit:10;stroke-dasharray:none;stroke-opacity:1"
           d="m 2088.68,1047.65 c 168.2,55.45 281.83,212.56 281.83,389.66 0,226.59 -183.69,410.29 -410.28,410.29 -226.6,0 -410.29,-183.7 -410.29,-410.29 0,-2.01 0.02,-4.02 0.04,-6.03 v 0 -926.476 h 23.53 v 926.646 c -0.03,1.95 -0.05,3.91 -0.05,5.86 0,213.6 173.16,386.77 386.77,386.77 213.6,0 386.76,-173.17 386.76,-386.77 0,-166.95 -107.12,-315.06 -265.67,-367.32 v 0 z" /></g><g
         transform="scale(1.00025,0.999753)"
         id="g472"
         style="fill:#0080ff;fill-opacity:1;stroke:none"><path
           id="path474"
           style="fill:#0080ff;fill-opacity:1;stroke:none;stroke-width:7.49999;stroke-linecap:butt;stroke-linejoin:miter;stroke-miterlimit:10;stroke-dasharray:none;stroke-opacity:1"
           d="m 2073.61,1092.09 -7.71,22.1 c 139.75,45.7 234.28,176.08 234.28,323.11 0,187.75 -152.2,339.95 -339.94,339.95 -187.75,0 -339.95,-152.2 -339.95,-339.95 0,-1.29 0.01,-2.58 0.02,-3.87 v 0 -928.626 h -23.41 l 0.01,927.626 c -0.02,1.62 -0.03,3.25 -0.03,4.88 0,200.67 162.68,363.35 363.35,363.35 200.67,0 363.36,-162.68 363.36,-363.35 0,-156.99 -100.83,-296.24 -249.98,-345.22 z" /></g><g
         transform="scale(1.00025,0.999753)"
         id="g476"
         style="fill:#0080ff;fill-opacity:1;stroke:none"><path
           id="path478"
           style="fill:#0080ff;fill-opacity:1;stroke:none;stroke-width:7.49999;stroke-linecap:butt;stroke-linejoin:miter;stroke-miterlimit:10;stroke-dasharray:none;stroke-opacity:1"
           d="m 1667.12,504.804 h -23.41 v 929.666 c 0,0.94 -0.01,1.88 -0.01,2.83 0,174.81 141.72,316.54 316.54,316.54 174.82,0 316.54,-141.73 316.54,-316.54 0,-137.08 -88.24,-258.59 -218.6,-301.01 v 0.01 l -7.7,22.1 c 120.95,39.13 202.9,151.77 202.9,278.9 0,161.89 -131.24,293.13 -293.13,293.13 -161.9,0 -293.14,-131.24 -293.14,-293.13 0,-0.59 0.01,-1.17 0.01,-1.75 v 0 z" /></g></g></g></svg>
