<?xml version="1.0" encoding="UTF-8" standalone="no"?>
<svg
   viewBox="0 0 110 110"
   height="110"
   width="110"
   xml:space="preserve"
   id="svg2"
   version="1.1"
   xmlns="http://www.w3.org/2000/svg"
   xmlns:svg="http://www.w3.org/2000/svg"
   xmlns:rdf="http://www.w3.org/1999/02/22-rdf-syntax-ns#"
   xmlns:cc="http://creativecommons.org/ns#"
   xmlns:dc="http://purl.org/dc/elements/1.1/"><metadata
     id="metadata8"><rdf:RDF><cc:Work
         rdf:about=""><dc:format>image/svg+xml</dc:format><dc:type
           rdf:resource="http://purl.org/dc/dcmitype/StillImage" /></cc:Work></rdf:RDF></metadata><defs
     id="defs6"><rect
       x="386.51053"
       y="141.52168"
       width="170.73109"
       height="57.184635"
       id="rect1" /></defs><g
     id="g2"
     transform="matrix(0.13333333,0,0,-0.13333333,-325.51671,246.71104)"><g
       transform="scale(1.00025,0.999753)"
       id="g456"
       style="fill:#0080ff;fill-opacity:1;stroke:none"><path
         id="path458"
         style="fill:#0080ff;fill-opacity:1;stroke:none;stroke-width:7.49999;stroke-linecap:butt;stroke-linejoin:miter;stroke-miterlimit:10;stroke-dasharray:none;stroke-opacity:1"
         d="m 2861.2293,1800.6291 c -200.67,0 -363.3516,-162.6764 -363.3516,-363.3564 0,-200.67 162.6816,-363.3563 363.3516,-363.3563 1.63,0 3.2567,0.01 4.8767,0.029 h 44.2272 l 1.362,23.3993 h -46.5851 c -1.29,-0.01 -2.5862,-0.015 -3.8662,-0.015 -187.75,0 -339.9492,152.1923 -339.9492,339.9423 0,187.74 152.1992,339.9424 339.9492,339.9424 147.03,0 277.3931,-94.5217 323.0931,-234.2717 h 0.015 l 22.099,7.707 c -48.99,149.15 -188.2313,249.9787 -345.2213,249.9787 z" /></g><g
       transform="scale(1.00025,0.999753)"
       id="g460"
       style="fill:#0080ff;fill-opacity:1;stroke:none"><path
         id="path462"
         style="fill:#0080ff;fill-opacity:1;stroke:none;stroke-width:7.49999;stroke-linecap:butt;stroke-linejoin:miter;stroke-miterlimit:10;stroke-dasharray:none;stroke-opacity:1"
         d="m 2861.2439,1753.8304 c -174.82,0 -316.5468,-141.733 -316.5468,-316.543 0,-174.82 141.7268,-316.5431 316.5468,-316.5431 0.94,0 1.8865,0.015 2.8265,0.015 h 48.9721 l 1.3473,23.414 h -51.4031 c -0.58,0 -1.1528,-0.015 -1.7428,-0.015 -161.89,0 -293.1298,131.2391 -293.1298,293.1291 0,161.89 131.2398,293.1437 293.1298,293.1437 127.13,0 239.7652,-81.9517 278.8952,-202.9017 l 22.0989,7.707 c -42.41,130.36 -163.9141,218.594 -300.9941,218.594 z" /></g><g
       transform="scale(1.00025,0.999753)"
       id="g464"
       style="fill:#0080ff;fill-opacity:1;stroke:none"><path
         id="path466"
         style="fill:#0080ff;fill-opacity:1;stroke:none;stroke-width:7.49999;stroke-linecap:butt;stroke-linejoin:miter;stroke-miterlimit:10;stroke-dasharray:none;stroke-opacity:1"
         d="m 2861.2293,1847.545 c -226.59,0 -410.2881,-183.6869 -410.2881,-410.2869 0,-226.59 183.6981,-410.2723 410.2881,-410.2723 2.01,0 4.0236,-7e-4 6.0336,0.029 h 40.361 l 1.362,23.5312 h -41.8987 c -1.95,-0.03 -3.9079,-0.044 -5.8579,-0.044 -213.6,0 -386.7686,173.1557 -386.7686,386.7557 0,213.6 173.1686,386.7703 386.7686,386.7703 166.94,0 315.0503,-107.1357 367.3203,-265.6857 l 22.3333,7.3846 c -55.44,168.19 -212.5536,281.8177 -389.6536,281.8177 z" /></g></g></svg>
