<svg width="235" height="147" viewBox="0 0 235 147" fill="none" xmlns="http://www.w3.org/2000/svg">
<path d="M62.7029 95.1043L99.9096 141.132H64.5805C61.7393 141.164 58.9281 140.551 56.3599 139.341C53.7917 138.132 51.5338 136.356 49.7571 134.149L0 72.0904H31.1291C35.9919 72.1289 40.6877 70.3268 44.2657 67.049C47.8436 63.7713 50.0362 59.2628 50.3995 54.4366V53.3056C50.4251 49.0996 49.0953 44.9961 46.6052 41.5975C44.1152 38.1989 40.596 35.6842 36.5643 34.4224C34.7978 33.9172 32.9671 33.6688 31.1291 33.6848H25.3974L0 2.11452H33.1055C44.0177 2.14275 54.6387 5.62069 63.4357 12.0464C72.2327 18.4722 78.7509 27.5133 82.0495 37.8653C85.3481 48.2172 85.2566 59.3444 81.7882 69.6413C78.3198 79.9381 71.6538 88.8719 62.7523 95.1535L62.7029 95.1043ZM235 72.0904C235.358 81.677 233.77 91.2369 230.33 100.199C226.891 109.16 221.671 117.34 214.983 124.248C208.294 131.156 200.275 136.651 191.404 140.404C182.533 144.157 172.993 146.092 163.354 146.092C153.714 146.092 144.174 144.157 135.303 140.404C126.432 136.651 118.413 131.156 111.725 124.248C105.036 117.34 99.8166 109.16 96.3772 100.199C92.9378 91.2369 91.3495 81.677 91.7073 72.0904C91.6992 64.5121 92.883 56.9791 95.2155 49.765C95.2155 49.3716 95.4626 48.929 95.6108 48.4865C97.8255 43.6539 99.0249 38.4219 99.1353 33.1115C99.2458 27.8012 98.265 22.5243 96.2531 17.6046C100.157 15.0967 104.406 12.6871 104.406 12.6871C106.839 15.026 110.072 16.3616 113.454 16.4255C116.837 16.4893 120.118 15.2767 122.639 13.0314C134.524 4.62726 148.725 0.0765676 163.304 0C172.765 0.0450958 182.124 1.94428 190.847 5.58912C199.57 9.23396 207.487 14.5531 214.144 21.2427C220.802 27.9324 226.07 35.8616 229.649 44.5777C233.227 53.2937 235.046 62.6258 235 72.0413V72.0904ZM200.412 72.0904C200.344 64.7916 198.107 57.6761 193.983 51.6403C189.858 45.6045 184.032 40.9184 177.236 38.1722C170.441 35.426 162.981 34.7426 155.796 36.2081C148.611 37.6736 142.023 41.2225 136.861 46.4076C131.699 51.5927 128.194 58.1822 126.788 65.346C125.382 72.5097 126.138 79.9274 128.96 86.6645C131.783 93.4016 136.545 99.1568 142.648 103.205C148.751 107.253 155.921 109.414 163.255 109.414C168.172 109.421 173.042 108.456 177.581 106.576C182.121 104.696 186.241 101.938 189.702 98.4619C193.163 94.9856 195.896 90.8603 197.743 86.325C199.59 81.7897 200.514 76.9346 200.462 72.0413L200.412 72.0904Z" fill="#FF1D25"/>
</svg>