<svg viewBox="0 0 135 122" fill="none" xmlns="http://www.w3.org/2000/svg"><path d="M4.35674 116.542V108.21H10.2366C14.7911 108.21 17.4721 105.59 17.4721 101.416C17.4721 97.2274 14.8064 94.6074 10.2366 94.6074H2.10229V116.542H4.35674ZM4.35674 96.7552H10.2213C13.3288 96.7552 15.172 98.4917 15.172 101.416C15.172 104.326 13.3288 106.078 10.2213 106.078H4.35674V96.7552Z" fill="#23773C"/><path d="M29.4355 94.6074H26.6631L18.9706 116.542H21.3317L23.1901 111.226H32.8933L34.7517 116.542H37.128L29.4355 94.6074ZM23.9213 109.124L28.0341 97.3036L32.1622 109.124H23.9213Z" fill="#23773C"/><path d="M54.6088 116.542H57.2288L51.6079 107.997C54.8677 107.296 56.7261 104.889 56.7261 101.416C56.7261 97.2274 54.0604 94.6074 49.4906 94.6074H41.3563V116.542H43.6107V108.21H49.1097L54.6088 116.542ZM43.6107 96.7552H49.4753C52.5828 96.7552 54.426 98.4917 54.426 101.416C54.426 104.326 52.5828 106.078 49.4753 106.078H43.6107V96.7552Z" fill="#23773C"/><path d="M64.3382 116.542V107.159H73.6911V105.011H64.3382V96.7552H75.6104V94.6074H62.099V116.542H64.3382Z" fill="#23773C"/><path d="M82.4256 116.542V94.6074H80.1712V116.542H82.4256Z" fill="#23773C"/><path d="M90.7396 116.542V98.4917L102.834 116.542H105.089V94.6074H102.834V112.658L90.7396 94.6074H88.5004V116.542H90.7396Z" fill="#23773C"/><path d="M119.76 116.999C126.325 116.999 129.875 112.323 129.875 105.575C129.875 98.8268 126.325 94.1504 119.76 94.1504C113.21 94.1504 109.661 98.8268 109.661 105.575C109.661 112.323 113.21 116.999 119.76 116.999ZM119.76 114.852C114.611 114.852 111.991 111.059 112.037 105.575C112.083 100.091 114.611 96.2982 119.76 96.2982C124.909 96.2982 127.498 100.091 127.498 105.575C127.498 111.059 124.909 114.852 119.76 114.852Z" fill="#23773C"/><path d="M51.9862 15.33L66.3162 1L80.6463 15.33L66.3162 29.6601L78.3896 41.5077L66.3162 53.5811L80.6463 67.9111L66.3162 82.2412L51.9862 67.9111L66.3162 53.5811L54.2429 41.5077L66.3162 29.6601L51.9862 15.33Z" fill="#23773C"/><path d="M66.3162 29.6601L51.9862 15.33L66.3162 1L80.6463 15.33L66.3162 29.6601ZM66.3162 29.6601L54.2429 41.5077L66.3162 53.5811M66.3162 29.6601L78.3896 41.5077L66.3162 53.5811M66.3162 53.5811L51.9862 67.9111L66.3162 82.2412L80.6463 67.9111L66.3162 53.5811Z" stroke="#23773C"/><path d="M93.0581 3.48242L80.8719 15.3301L107.388 41.5078L80.8719 68.024L93.0581 80.2102L130.576 41.5078L93.0581 3.48242Z" fill="#23773C" stroke="#23773C"/><path d="M39.5177 3.48242L51.7039 15.3301L25.1876 41.5078L51.7039 68.024L39.5177 80.2102L2.00006 41.5078L39.5177 3.48242Z" fill="#23773C" stroke="#23773C"/><path d="M2.00024 50.6475L39.9128 88.56H2.00024" stroke="#23773C" stroke-width="3"/><path d="M130.632 50.6475L92.7194 88.56H130.632" stroke="#23773C" stroke-width="3"/><path d="M2.00024 121C33.3232 120.684 100.468 120.53 130.632 120.661" stroke="#23773C" stroke-width="2"/></svg>