<svg xmlns="http://www.w3.org/2000/svg" viewBox="0 0 1800 728">
                                <g transform="translate(-45.0352,-595.43733)" id="g4">
                                    <path d="m 396.2155,895.6605 c 1.3657,1.8198 1.3657,0.9116 2.7347,2.2772 0.9116,0.9161 0.9116,2.7392 1.369,4.1048 1.3657,2.738 3.6473,3.1921 5.013,5.4761 5.4727,7.751 -5.013,9.5741 4.5611,14.5938 0.4575,7.7498 5.0197,9.1155 1.369,13.2236 -2.7346,0 -4.1036,-0.4574 -6.8383,0 -2.7391,0.4541 -3.1966,1.3657 -6.3887,0.9116 -2.2772,-3.1932 -1.3657,-3.6507 -6.3809,-3.6507 -5.0163,-6.8383 0,-9.1189 5.0152,-12.3121 0,-6.8383 -12.7695,-8.2074 -14.5926,-16.8699 -0.4575,-1.8265 0,-2.738 -0.9116,-4.5611 -1.8265,-3.6507 -2.7358,-3.1933 0.4541,-6.3854 1.369,-1.369 0.4575,-1.8231 1.8231,-2.738 1.8265,-1.8231 3.1955,0.9149 5.9301,-2.7346 4.5589,-5.9279 6.8428,-0.4586 11.4006,-5.9279 2.2817,0.4574 1.3656,0.9115 4.1048,-0.4575 1.8231,-0.9115 1.369,-0.9115 3.1921,0 0.4575,3.1921 -0.9115,1.8265 -0.9115,5.4727 0,3.1932 0,2.2817 -3.6496,2.7358 -2.2817,1.369 -6.8395,4.1036 -7.2936,6.8416 z m 10.0316,287.3015 c 0,-1.3656 0.4541,-2.2772 0,-3.6462 -2.2806,-0.4575 -5.0197,0 -5.9279,2.2806 -1.369,3.6462 0,3.1921 -4.5611,3.1921 -0.4541,5.4704 0,3.1887 -4.1037,5.0163 -1.3701,0.4541 0,0 -1.3701,0.9082 -2.2806,1.8265 -1.369,0.4574 -3.1921,1.8265 l -0.9116,0.9149 c -8.2084,-1.3724 -5.0152,1.8197 -8.2084,4.1036 -1.8265,1.3657 -2.284,0.9082 -3.1921,2.7358 1.8231,2.2806 4.5588,2.7347 5.4704,5.4727 -0.9116,3.1887 -4.1048,3.1887 -4.5623,5.9279 -1.3622,8.2107 12.773,13.2237 19.6158,8.2107 1.8231,-1.3724 0.9115,-1.8299 2.2772,-3.1955 0.9115,-1.3656 1.8265,-1.3656 2.2806,-2.738 0.9115,-1.8198 1.3656,-5.9245 2.2771,-8.6626 0.9161,-2.7346 3.1933,-4.5611 4.5623,-6.3853 3.1921,-3.6496 1.369,-4.1037 0.4575,-7.7533 2.2805,0 1.8231,0.9116 4.1036,0.4575 2.2806,-4.5622 0,-7.751 -5.0152,-8.6659 z M 132.1693,1007.389 c 0.9115,2.2806 0.4574,5.4727 0.9115,8.2085 0.9116,7.7532 5.0164,14.1386 7.7544,20.9769 0.9082,2.2817 1.3656,5.0163 2.2772,6.8428 2.2805,5.0152 3.6496,1.8231 12.3121,6.8394 1.8231,0.9116 2.2806,3.6462 4.1082,5.4727 2.7346,0 1.8197,-0.9116 4.1003,0.4541 5.4726,2.2805 2.2805,-0.4541 5.9301,-0.4541 5.4738,0 8.2084,13.2237 12.3121,15.0501 2.7392,1.3657 5.4738,0.4541 6.8428,2.7358 1.3657,2.2806 2.7347,4.1037 2.7347,7.2958 0,4.1048 0.4541,5.0163 1.369,8.6659 1.3668,4.5578 0.9127,5.4693 -3.1921,5.0118 0.9115,2.7426 8.6659,13.2282 11.4005,16.4203 1.8231,2.738 10.9432,14.5927 11.4006,16.4192 0.4541,2.7346 -0.4574,1.8231 2.2806,3.6473 5.0163,3.6462 4.5589,9.1189 7.2969,13.6811 2.7346,4.1037 4.1036,5.0152 2.2805,10.0316 -0.9149,2.738 -0.9149,2.738 0.4541,5.4727 0.915,2.2805 0.4575,3.1921 1.369,5.4738 1.3657,3.1887 9.5741,14.1352 11.4006,15.9617 2.2806,2.2805 4.5623,4.5611 6.8428,7.2969 3.1921,3.6462 2.7347,5.0152 6.3843,7.7498 3.1898,2.2806 3.1898,5.0197 6.3819,7.7544 1.8265,1.369 1.8265,1.8231 3.6496,3.6496 4.1048,3.1932 8.6659,5.4704 11.858,9.1166 3.1899,3.1921 4.5623,2.7414 6.8361,6.8428 0.4575,1.369 1.8299,1.369 3.1955,1.8231 3.6462,1.369 0.4541,2.2806 9.5775,5.0186 2.7346,0.9115 5.4693,0.9115 8.2084,1.3656 7.2958,0.915 18.2389,5.0197 24.6276,0 2.7313,-2.2772 4.1037,-2.2772 5.4693,-5.4726 0.4541,-0.9116 1.369,-1.8231 2.7392,-3.6462 0,0 0,0 0,-0.4586 l 0.4541,-0.4541 c 0.4574,-0.4575 0,0 0.4574,-0.4575 -0.4574,-1.369 -0.9115,-1.8197 -1.369,-3.1921 2.2806,0 6.3842,-0.4575 7.7533,-2.7347 0.9081,-2.2805 -0.4575,-2.738 -1.3691,-4.5577 -1.8264,-2.7392 -0.9115,-1.8276 0,-4.5623 -1.369,-1.369 -3.6495,-2.2805 -5.4726,-4.1036 l -0.9116,-1.8265 c 0,0 0,0 0,-0.4541 2.2806,-0.4574 3.6462,0 5.9268,0 3.1921,-0.4574 1.8265,-1.8276 3.6496,-3.1932 1.369,-0.9149 3.6473,-0.4575 5.4738,-0.9149 2.7346,-0.4541 2.2771,-1.3657 4.5611,-2.2772 2.2772,-0.9116 3.1887,-0.4541 5.0129,-1.8265 3.6496,-3.1887 1.8265,-5.9245 1.3691,-10.0316 0,-2.7346 -1.3691,-3.1921 -2.7347,-4.5577 l 1.3656,-4.5623 c -3.6473,-2.738 -2.2783,-2.738 -4.1047,-4.107 -1.3657,-1.3623 -3.1922,-1.8197 -5.0153,-3.1887 0.4541,-5.0197 0.4541,-3.6507 -1.8231,-7.7544 -3.6473,-7.751 4.5612,-12.7662 5.0153,-13.6811 3.1921,-3.6474 5.9278,-7.751 10.0315,-10.9431 2.2806,-1.8231 4.1071,-2.2806 5.9268,-4.5623 3.6507,-5.0152 4.1048,-6.8417 10.9498,-9.573 6.382,-2.7391 9.12,-0.916 12.7674,-7.7543 3.1921,-5.4738 6.8383,-4.1037 9.5763,-11.404 3.6507,-9.12 6.8394,-8.205 7.7544,-13.2236 1.3656,-9.12 4.5577,-6.3854 3.1887,-11.4006 -0.4541,-2.2805 0,-0.4541 0,-2.738 0,-6.382 -6.3842,-1.3668 -9.1189,-0.4552 -3.1898,1.3701 -5.9279,1.3701 -9.5774,1.3701 -4.5589,0 -5.9279,1.369 -9.5775,0.9116 -1.8231,0 -3.1921,-0.4575 -4.5589,0.9115 -2.738,1.8231 -0.9115,0.9116 -4.5577,1.369 -1.369,1.8231 -0.4575,1.8231 -3.1955,2.2806 -1.3657,-0.9149 -2.7347,-2.2806 -4.1048,-3.1921 -2.2806,-1.369 -3.6462,-0.9116 -5.9268,-0.9116 0,-2.2839 1.369,-1.8264 2.2806,-3.6507 -0.9116,-1.8231 -2.738,-2.2805 -4.1037,-4.5577 -5.4738,-8.6659 -6.3853,-4.5612 -9.5808,-9.1234 -1.3657,-2.2806 -2.2772,-3.6496 -3.6462,-5.4727 -2.7358,0 -3.1899,1.8231 -5.0164,0.9149 -2.7346,-2.2839 -0.454,-8.2084 -1.8231,-11.858 -1.8264,-4.1048 -5.9267,-2.2805 -7.7543,-5.4738 -0.9116,-1.369 -2.7347,-8.6648 -2.7347,-10.9465 -0.4574,-8.6647 -1.369,-4.5611 -5.0186,-8.2073 -4.5588,-5.0163 -1.3656,-7.2969 -2.7324,-9.5775 -0.9149,-1.8231 -1.8264,-1.3656 -2.738,-3.6462 -4.5611,-11.8546 -11.4006,-15.5053 -10.489,-23.7171 3.1932,0.4586 3.6473,2.7391 5.9279,4.1081 2.2805,-1.369 2.2805,-3.6495 5.0152,-3.6495 0.9115,4.5611 -0.9116,5.0152 3.1966,10.9453 1.8197,2.7358 4.1037,5.4738 5.9234,8.6659 2.2839,4.5589 -0.4541,7.2935 3.1921,10.9431 2.7392,2.2806 6.3854,3.1921 8.6659,5.4705 0.915,7.2991 -5.0152,5.476 2.2806,11.858 l 4.1048,4.1036 c 4.1036,4.5612 7.2958,9.1234 12.3121,12.773 1.8265,1.3656 2.738,2.7346 1.8265,5.9245 -1.369,4.107 -1.369,3.1921 0.9115,5.9301 2.2806,2.7347 0.9116,6.8395 6.3809,10.035 6.8462,3.6462 20.9814,0 27.3667,-3.6496 5.0153,-2.7392 4.1037,-3.6507 11.4006,-5.9279 10.489,-3.1955 12.7696,-9.1234 23.2552,-10.9465 12.3121,-1.8231 6.3843,0 15.5076,-9.5774 2.2806,-2.7347 2.2806,-2.2806 2.7347,-6.3843 0.4574,-5.4738 3.1932,-7.2935 6.8394,-10.0349 11.404,-9.1166 -3.6462,-12.3121 -10.4856,-16.4158 -5.9302,-3.1898 -5.0152,-4.1014 -7.7544,-9.5774 -6.8417,-1.3657 -8.6648,7.2957 -11.4005,10.9464 -1.3691,1.8231 -7.2958,1.3691 -10.0305,0.9116 -4.5622,-0.4541 -4.5622,-2.2806 -5.4738,-5.9279 -13.6811,2.2806 -4.5611,-5.9301 -13.6811,-12.7696 -2.738,-1.8231 -5.0152,-4.1036 -6.3854,-7.2957 -3.1921,-8.666 6.3854,-8.2119 15.0513,-2.2817 5.4693,3.6507 5.0152,12.3121 13.2237,13.6856 4.5611,0.9115 7.2958,-1.3735 10.9431,-2.2817 11.858,-3.6496 7.2958,0.9082 14.1386,3.6473 9.12,3.6496 20.5205,3.6496 30.098,1.3657 10.0338,-2.2772 12.3121,-6.8395 20.0654,-1.8198 12.3121,8.2074 10.489,5.4693 20.0664,5.4693 -1.369,1.8265 -3.1921,2.7381 -3.6495,4.5612 2.2805,3.1932 13.6845,6.3853 18.6963,4.5588 l 0.9149,-8.2084 c 5.4705,1.369 -1.369,14.596 12.3122,32.3786 3.6507,4.5611 2.2783,10.9465 7.7543,15.0501 1.3657,1.369 1.8231,2.7381 2.7347,5.0164 4.5589,10.0349 9.5774,11.4005 15.9628,2.2805 3.1921,-4.5588 5.9268,-0.4541 5.4693,-10.0315 -0.4541,-5.9313 0.4575,-7.2969 -0.9115,-13.2271 -0.9082,-5.4738 0,-8.2084 2.738,-11.3972 5.0163,-5.4738 8.6659,-10.0349 12.3121,-18.2433 0.9127,-1.8265 1.3701,-3.6496 1.8242,-5.4727 0.9116,-2.7347 1.369,-3.1921 2.7347,-4.5623 3.6495,-4.1036 4.5611,-10.4878 7.2958,-15.5042 1.3701,-1.8231 1.8275,-1.8231 4.1081,-3.1955 5.4693,-3.1887 3.6462,-5.0129 6.8383,-8.6625 l 2.2817,3.1921 c 1.3657,2.2817 1.3657,5.4704 4.1003,6.3854 0.9149,0.4574 1.8265,0.4574 3.1955,0.9149 2.2772,0.4541 0.9115,0.4541 2.7346,1.3656 4.1048,2.2806 2.2817,-0.9115 3.1933,5.0164 l 2.2805,0.9115 c 0,4.1037 -3.6495,5.4727 -0.9115,9.1189 2.2806,0.9149 4.1037,-0.4541 5.0152,-1.8231 1.8265,-2.2806 0.9149,-3.1921 3.6473,-4.1037 v -3.6462 c 2.7381,1.8231 2.284,5.9268 3.1922,8.6648 2.738,6.3854 3.6495,1.3656 5.4726,13.2237 0.4575,2.7357 -0.9115,13.2248 0.915,17.7825 l 0.9126,-1.3623 c 0,0 0,0 0,-0.4574 0.4541,-0.4575 0,-0.4575 0.9116,-0.9116 2.7346,0.9116 1.8231,4.1037 2.2805,6.8384 3.1922,2.2816 2.2772,1.369 3.1922,8.2084 0.454,4.5611 0.9115,3.6496 2.2771,6.8428 l 0.915,2.2772 c 0.4541,-1.8231 -0.4575,1.369 0,-0.9082 0.4541,-2.738 5.4704,-2.738 5.4704,-6.3887 0,-1.8231 -0.9116,-3.1921 -0.9116,-5.4727 0,-7.751 0.9116,-5.9245 -1.8231,-8.2084 -1.3701,-1.3657 -1.3701,-2.2772 -3.6507,-1.8198 H 652.05 c -0.9116,-2.2839 -0.4575,-4.107 -1.8231,-7.3002 -1.369,-2.7347 -1.369,-4.5612 -0.9116,-7.7533 1.3657,-8.205 -2.2805,-12.3087 0,-15.5053 0.9116,1.369 0.9116,2.738 2.2772,3.6507 1.8265,0 2.2806,-1.3702 4.1071,-0.9127 0.9115,1.3701 0.4541,2.7358 0.9115,5.0163 1.8242,0.9116 0.4541,0 0.9127,0.4575 l 0.9115,0.4541 c 0.4575,0 0,0 0.9116,0.4541 0.9115,0 0.4575,-0.4541 0.9115,0 1.3657,1.8265 0.4541,5.4738 0.4541,7.7543 1.3691,-0.9115 1.8265,-2.2805 2.284,-3.6507 0.4574,-1.3656 1.3656,-2.7346 1.8231,-4.1036 1.3656,-3.1921 1.3656,-5.9234 2.738,-9.12 3.1899,-7.2958 1.3668,-14.1352 0.4541,-21.4321 0,-1.3691 -2.738,-7.7533 -3.1921,-8.6648 -0.4575,-0.4575 -2.738,-2.2817 -3.6496,-2.7358 -1.8231,-0.9149 -0.4575,0 -1.8231,-1.369 -3.6473,-3.1921 -4.1048,-1.8231 -4.1048,-11.4006 0,-4.5611 0.4575,-7.7532 2.7358,-9.5774 1.369,1.3701 0.4574,1.8242 1.8265,2.7357 1.3656,-1.8231 0.454,-4.5622 0.9081,-7.2969 0.4575,-2.7346 1.3691,-4.5611 1.3691,-7.2935 0.4574,-5.476 2.2805,-10.0338 2.2805,-15.5076 0,-4.1037 -1.3656,-4.1037 -1.3656,-6.3809 -0.9149,-9.1233 -2.284,-7.7543 -3.6496,-14.1397 -1.369,-5.4726 -2.2817,-10.9431 -5.4738,-15.9617 -1.3656,-2.2805 -0.9116,-0.4541 -2.7347,-1.8231 -1.369,-1.369 -1.8231,-4.5622 -2.738,-5.9312 -1.8231,-3.6462 -2.7313,-1.3657 -4.5622,-4.5612 -2.2772,-4.1036 -5.0152,-5.9245 -7.2924,-10.0281 -1.8231,-3.6496 -1.369,-2.7381 -1.8231,-6.8428 -0.4575,-2.2806 -2.7392,-4.1037 -5.0198,-4.1037 l 1.3691,5.4738 -5.0153,-0.9161 c -0.4574,-5.9267 0.4541,-3.6462 -2.2805,-8.2073 -0.9116,-1.8231 -2.7392,-5.0163 -2.2817,-6.8394 2.2817,1.3656 2.7358,5.0163 5.0163,6.382 l -0.9115,-6.382 c 2.738,1.3656 2.738,3.6507 5.0152,5.0163 l 0.4575,-1.3656 v -0.4586 c 0,0 0,0 0,-0.4575 l 4.1048,5.9279 c 1.369,1.8265 2.2805,5.4727 5.0152,5.4727 -1.369,-7.7532 -1.8231,-6.3809 -5.4693,-11.858 -4.5623,-6.8383 -7.7544,-5.9234 -12.3167,-13.6778 -2.2805,-4.107 -7.2924,-8.6659 -8.6647,-13.227 -0.4541,-1.8231 0,-1.8231 -0.9116,-3.6462 -2.7358,-4.5623 -12.3121,-13.2271 -16.8744,-18.2434 -0.4541,-0.4575 -17.3273,-14.5927 -19.1504,-15.9583 4.1037,1.8231 5.4727,3.6462 8.6648,5.9267 l 6.382,4.5623 c 1.8264,1.8231 0.4574,0.9115 2.7346,1.8231 -0.4541,-1.8231 -0.4541,-0.9116 -0.9082,-2.2806 -1.369,-3.1932 -1.8264,-2.2817 -5.9301,-5.4738 l -8.2084,-6.8417 c -2.7347,-1.8208 -1.8231,-0.9115 -5.4738,-4.1048 l -15.5043,-10.9431 c -0.9115,-0.454 -1.3656,-0.9115 -2.2805,-1.369 -5.0164,-3.1887 -13.2237,-6.3842 -19.1516,-10.0315 -1.8231,-0.9116 -2.738,-1.8231 -4.5611,-2.2806 -3.1933,-1.8231 -6.3854,-3.1887 -9.5741,-4.5577 0.4541,1.369 1.8197,1.369 3.1887,1.369 l -11.4005,-5.9313 -45.1482,-14.596 c -2.7347,-0.4541 -5.9268,-1.3623 -8.6614,-1.8198 v 1.3657 c 7.2924,1.8231 1.8231,2.2805 8.6614,5.9279 1.8264,0.9149 4.1048,0.4574 5.9279,1.8264 l 0.4574,0.4541 c 1.8231,1.369 0.9116,0.9116 2.2806,2.2806 0.4574,0.4574 0.4574,0.4574 0.9115,0.4574 -1.369,0.9116 -1.369,-0.4574 -2.738,0.9116 1.369,1.8231 1.8265,0.4541 1.8265,2.7347 l -5.4727,-0.4541 1.8265,1.8231 -2.738,-0.4541 c 0.454,2.2783 -1.8243,3.1898 2.738,3.6473 2.7346,0.4575 3.1887,0.9116 5.9267,1.8265 l -3.1921,1.8197 c 0.9116,0.9116 1.369,1.369 3.1921,1.8265 h -0.4574 c -0.4575,0.9115 -2.7347,0.9115 -3.6496,0.9115 -4.1037,-1.369 -9.5741,-5.0152 -12.7662,-0.9115 0.9116,0.9115 0.9116,0.4574 1.8231,0.9115 l 2.2806,1.3657 -7.2958,-0.4541 -0.4586,2.7391 c -2.2806,-0.4574 -1.3656,-0.916 -3.6462,0 v 3.1888 c -1.8265,-0.9116 -2.738,-2.7347 -3.6462,-3.6462 -1.369,-1.3702 -1.8265,-2.2817 -3.6496,-3.6474 -1.8242,-1.3723 -5.9279,-2.738 -8.6659,-1.8264 -3.1921,0.9115 -0.4541,0 -1.3656,1.8264 -2.7392,0 -2.2817,-0.9149 -4.5623,-0.9149 0,3.6462 2.7358,1.8231 3.1933,5.0197 -3.1933,2.2772 -4.5623,0.4541 -6.3854,4.5578 -2.2806,5.4727 2.7347,4.5611 4.1037,6.3853 -1.8231,0 -8.6648,-1.3701 -3.1921,4.5578 0.9115,0.9149 1.369,1.369 1.8231,1.8265 0.4574,0.4574 0.4574,0.4574 0.9115,0.9115 l 0.9116,0.9116 c 0,0 0,0 0.4574,0.454 -3.1921,-0.454 -4.5611,-2.2771 -8.6648,-1.8197 0,3.1888 1.369,3.1888 2.7381,5.4704 -4.5612,0 -3.1922,-2.7391 -5.4738,-5.0163 -1.8265,1.8231 -0.915,4.5589 1.3701,5.9279 3.1887,1.8265 1.3656,2.738 3.6462,5.0152 3.6496,0.4575 5.9268,-0.4541 8.6659,1.369 1.8231,1.369 4.5611,3.1921 4.5611,5.4738 -3.1921,0.4575 -3.1921,-5.0163 -8.6659,-4.1048 -0.4574,2.7358 1.3657,2.7358 1.8231,4.1048 0,1.369 -0.4574,0.4575 0,2.7347 0,1.8265 0.9127,0.9149 0.4575,3.1921 h -3.1921 c -0.4575,-3.1921 1.3656,-5.0152 -1.369,-7.7499 -2.7381,-2.7391 -2.7381,-0.916 -4.5612,-5.4738 -1.3656,-3.6496 -3.1932,-2.2805 -4.5622,-5.4727 -1.3657,-3.1932 -0.9082,-5.0163 -5.4693,-5.0163 -6.3854,17.3318 6.3808,10.9431 7.2958,17.7859 -2.2772,-0.4541 -1.8265,-1.369 -4.1037,-1.8231 -1.369,-0.4586 -3.6462,-0.4586 -5.0186,-0.916 -7.2935,-1.3657 -5.9279,-1.3657 -7.2935,4.1081 -7.3003,-1.369 -7.3003,1.3657 -12.7696,3.1922 0.4574,-2.2806 0.9115,-0.9116 0.9115,-3.1922 -2.2805,-0.4574 -7.2969,1.8231 -8.6659,2.7347 -2.7346,1.3656 -4.5611,5.0152 -7.2958,5.0152 -0.9115,-3.6496 0.4575,-6.3842 -4.1047,-5.4693 -1.8231,2.7347 -0.4575,7.2935 -2.2772,8.6659 -0.4575,0 -7.3003,3.1888 -7.7544,3.1888 l 0.4541,5.0185 c -3.1921,-0.4574 -8.2073,-2.738 -9.5764,-2.738 -0.454,2.2806 0.4575,1.8231 0.4575,4.1048 -2.2817,-0.4541 -4.1048,-1.8242 -4.1048,-4.1048 0,-1.8231 -0.9115,-7.2991 -0.9115,-8.6659 1.3656,0.4541 18.24,9.5775 15.5053,-2.2806 -5.9279,-3.6462 -2.2817,-0.454 -7.7543,-6.8383 -1.3657,-1.369 -2.7347,-2.2817 -5.0164,-2.2817 -3.6462,-0.4574 -5.4727,1.3702 -4.5577,-3.1921 2.2772,0 0.9115,0.9116 3.6462,0.9116 -0.4575,-1.8231 -1.8231,-4.1037 -4.1037,-4.5578 -1.8265,-0.4574 -3.6462,1.8231 -5.4727,2.7347 l -1.3667,-2.2806 c -2.7381,0.9116 -2.284,1.369 -3.6496,2.2806 l -0.9116,-2.2806 -10.9464,5.4727 c -2.2772,0.9115 -3.6462,0.9115 -5.9268,2.2817 -1.8242,1.369 -3.6507,1.8231 -5.4738,3.1921 -1.369,0.9115 -3.1921,2.7346 -4.5611,3.6462 -6.3854,2.2839 -4.5589,4.5589 -10.0316,6.3887 -3.6462,0.9082 -2.7346,1.3657 -5.0163,3.1888 -6.3843,0 -5.9268,0.4574 -9.5764,3.6495 -4.1048,3.1933 -8.6659,-1.369 -5.9279,5.0164 -2.738,0 -5.0152,-0.4575 -6.3876,1.8231 0.4575,2.2805 0.4575,1.369 2.284,2.2805 -2.284,0.9116 -10.489,5.4738 -7.7544,8.2085 2.2806,2.7346 8.2118,0 10.0316,-0.9116 0,3.1921 0.4574,7.2958 0.4574,9.5775 -0.4574,2.7347 -2.7346,4.5578 -1.369,8.2073 7.2958,5.0164 13.6811,-7.2958 16.8733,-10.489 5.4704,-5.0152 6.8428,-3.6496 7.7543,-6.3842 0.9116,-3.1921 0.9116,-8.6659 2.2772,-11.858 3.1921,-0.9116 4.5623,0 6.8428,-2.7347 5.9268,-6.3853 5.0152,3.1921 7.7533,-3.1932 5.0163,-11.4006 15.9594,-4.1037 2.7324,2.7391 -6.382,3.1888 -15.0445,13.2237 -4.5589,15.5009 7.3003,1.3724 7.7544,-1.8198 12.3121,-2.2772 -2.2772,10.9431 -12.3121,1.3656 -16.4158,6.3842 -1.3656,2.2806 1.8265,6.8395 -2.2805,8.6626 -1.8231,-0.9082 -1.3657,-1.8231 -3.1933,-3.1888 -1.8197,0.4541 -3.1921,1.3657 -4.5577,2.7347 -1.3657,1.3656 -0.9116,2.738 -1.3657,5.4693 -0.4574,3.1932 -4.5611,2.285 -7.7543,6.3853 -5.0186,0.4575 -3.1921,-0.9082 -6.3843,-2.7346 -3.1932,1.369 -4.1047,5.4726 -10.9431,1.369 -1.8264,-0.9149 -2.2839,-1.8265 -5.0197,-2.7347 -2.7346,-0.4574 -4.5611,0 -6.3842,-1.3701 0,-4.5611 8.6625,-7.7532 8.6625,-15.5076 -4.1047,0.4574 -10.0315,5.4738 -11.3972,9.1234 -1.3701,2.738 -0.9126,5.0152 -2.7391,7.2969 -3.1921,3.1921 -6.8383,-3.1933 -15.0468,2.7346 -2.738,1.8231 -3.1921,2.2806 -7.2969,3.6496 -1.8231,0.4541 -4.107,2.7346 -6.3842,4.1037 -4.5623,2.2816 -4.5623,0.454 -7.7544,-0.4575 -1.8231,0.9115 -2.7346,2.7391 -4.1036,4.1082 -1.8231,-0.915 -1.8231,-2.7381 -4.1048,-2.2806 -1.8231,0.4541 -3.1921,1.8231 -3.6496,3.1921 0.9116,3.6462 1.8265,0 1.8265,6.3842 -0.4575,7.751 -0.4575,6.382 -5.0186,11.3972 -1.3657,1.369 -2.2772,3.6507 -4.1037,5.0197 -2.7358,-1.369 -3.6473,-2.2805 -5.9279,-4.1048 -1.3656,-0.9149 -2.2805,-0.9149 -3.1921,-1.8264 -1.3656,-1.3657 -0.4541,-1.3657 -1.8231,-3.1921 -6.8428,-0.9116 -5.4704,4.1036 -7.7543,9.5774 -3.1922,6.8417 -8.2085,6.8417 -9.1201,8.6659 -0.454,3.1922 1.3657,5.0186 0,7.2958 -0.9115,1.369 -4.1036,4.1048 -3.1921,6.3854 2.7381,2.7346 2.2806,0 3.1921,5.0152 1.3657,0.4574 4.1037,0 5.0164,0.4574 3.1921,1.3657 1.369,5.0164 6.8417,1.3657 2.2772,-1.3657 2.2772,-0.4541 5.0163,-0.4541 2.7347,-2.738 2.7347,-8.6648 5.9268,-10.0349 4.5577,-2.7347 8.6659,-0.9116 10.9465,-5.9268 1.8231,-4.1037 2.7346,-10.0316 7.751,-4.1037 4.1036,5.0186 9.1222,-0.4574 13.227,0 2.7346,6.8384 -3.1921,4.5612 6.8383,18.6964 1.8276,2.2772 4.5623,4.5622 4.5623,8.2118 0,3.6462 -2.7347,6.8394 -1.8231,10.4856 2.2805,0.4575 2.2805,0 3.1887,-1.3656 1.369,-1.8265 1.369,-0.9149 2.738,-1.8265 0.4541,-2.2817 0.4541,-3.6473 1.3657,-5.4738 2.7391,-0.4541 2.285,0.9116 5.9346,0.4575 0.4541,-3.1921 -2.2839,-2.7347 -4.1082,-8.6659 -0.454,-2.2772 -1.369,-1.8231 -3.1921,-3.1921 -1.8231,-1.3657 -1.369,-2.7347 -1.369,-5.0152 -0.4541,-3.6474 -1.8231,-6.382 -1.8231,-10.9431 0,-4.1048 1.8231,-7.297 5.9302,-6.8429 4.1047,4.1037 -0.4575,10.9465 0.9126,14.1386 l 4.1037,0.9116 c 0.9082,1.8242 0,2.2817 0.4541,4.1048 0,1.369 0.9115,2.7346 1.3656,4.1036 0.9149,4.1037 -0.9115,5.9313 0,10.035 1.3724,5.0118 5.9313,9.574 5.0186,15.0467 -0.4575,2.7392 -2.2806,5.4738 0,7.751 1.8242,1.8265 5.4738,0.9116 6.8428,-0.9082 2.2772,-2.738 1.3657,-14.1386 1.3657,-18.6974 2.2805,0.9081 2.738,2.2772 5.9312,1.8197 0.9116,-2.2772 0,-3.6462 3.6462,-3.1921 5.4727,0.9149 8.2085,6.3887 14.5927,-0.4541 1.8231,-2.2772 3.6507,-5.4693 5.0197,-9.12 2.2772,-7.2958 -1.8265,-7.7532 -1.369,-11.4006 3.6462,-2.2805 7.2924,0.4541 10.942,-1.369 2.7358,-1.3656 4.5622,-4.1036 8.6659,-3.1921 0.9116,2.2806 0.4541,5.0152 0.4541,7.2969 0,4.5611 12.3121,6.3842 13.227,2.2806 0,-4.1048 -2.2805,-2.2806 -3.1921,-5.0164 -0.9149,-3.1921 4.5623,-3.1921 6.8395,-3.6462 4.1036,-0.4574 5.0186,-4.1036 8.2107,-2.2839 0.9126,2.2839 -1.369,4.5611 -2.7381,5.4727 -4.1036,2.7391 -9.5774,4.5622 0.9116,8.6659 8.6659,3.1921 6.8394,5.0152 11.858,10.489 0.9116,1.3656 5.4738,4.5577 3.6473,6.3853 -3.1932,1.8231 -15.0478,0.9116 -19.1515,0 -6.8428,-0.916 -10.9465,-1.8276 -14.5961,-5.9278 -9.5741,-0.9116 -14.1363,2.2771 -20.9746,5.4693 -3.6462,1.8242 -5.9313,2.2816 -10.9465,2.2816 -5.9279,0 -8.6659,-1.8231 -7.2969,5.4727 -3.1887,1.369 -4.5611,0.9116 -2.2806,5.9279 3.1921,6.3842 5.0164,8.6648 12.3155,9.5764 5.0164,0.9126 5.9279,-0.4575 9.5741,-1.3691 3.6496,1.8276 3.1955,3.6507 8.6659,3.6507 4.1037,0 8.2107,-1.369 12.3155,-0.4574 -0.9149,2.2805 -2.2805,2.738 -3.1921,5.9301 -0.9127,3.6462 -0.9127,4.1048 -2.7391,6.3854 -3.1922,4.1036 -5.4727,7.2924 -5.4727,13.6777 -7.2969,2.2806 -9.5775,-5.4704 -19.1516,-1.8231 -6.3842,2.2806 -13.6811,-2.2772 -20.0665,-3.6473 -4.1036,-0.9149 -5.0152,-2.738 -7.2957,-4.5611 -1.8265,-1.369 -2.2806,-0.915 -3.1922,-2.7347 -3.1932,-4.5622 -9.12,-2.738 -13.6822,-0.9115 -5.0186,1.8231 -2.2806,3.6462 -4.1037,8.2073 -2.738,0.4541 -3.6495,-0.9149 -5.0152,-2.2806 -0.9149,-1.369 -2.2817,-2.2805 -4.1048,-3.6495 -5.9301,-3.6496 -4.1036,-1.3657 -6.8417,-8.2085 -1.8242,-4.5611 -5.0163,-4.5611 -7.7543,-6.8383 -1.3657,-1.3701 -4.5578,-7.7544 -4.5578,-10.4924 1.8231,-3.1899 6.8383,-5.4704 4.1037,-10.9431 -1.8231,-3.6507 -4.5611,-3.1932 -7.2969,-5.4704 -1.369,-0.915 -0.9149,-1.3724 -2.2806,-1.8265 -2.738,-1.3656 -5.0152,0 -7.7544,-0.4575 -3.6462,-0.4541 -2.2771,-1.3656 -6.8383,-0.9081 -3.6495,0.454 -4.1036,-0.4575 -6.8428,-1.3691 -4.1036,-0.9149 -3.6462,0.9116 -7.2958,0.9116 -2.2783,-1.8265 -0.9115,-1.369 -3.6473,-2.738 -3.1921,-1.3657 -0.9149,-1.8198 -2.7346,-4.5589 -2.7381,0.9082 -2.7381,4.1048 -5.0186,5.0163 -2.7358,1.369 -5.9279,-0.9115 -10.9465,8.6659 -1.3656,2.7347 -0.9116,5.0153 -2.7324,7.2958 -1.3724,1.8231 -4.1037,2.7347 -5.9301,3.6496 -4.5612,2.2783 -7.297,5.4704 -10.035,9.5741 -2.2772,3.1932 -2.2772,3.6507 -3.1921,7.2969 -0.9115,4.1037 -2.7313,1.369 -3.1887,6.3842 -0.4586,3.1933 0.4574,5.4704 -0.4586,8.6659 -0.9116,2.7347 -0.9116,5.9279 -1.369,8.2085 -5.4693,15.5042 -2.2772,17.7848 -3.1921,25.5391 -0.4541,5.4738 0,3.6462 0.9149,8.2085 -0.9149,5.4727 -0.4575,10.0315 0,12.3121 z" style="fill:#cee5c8;fill-rule:evenodd" id="path6"></path>
                                    <path d="m 304.8993,1050.7611 3.3009,-0.5049 c 7.2931,-1.3658 14.593,-2.7349 21.4319,-5.0157 6.839,-1.8233 12.7697,-5.0157 17.7854,-9.1198 5.0191,-4.1074 9.1198,-9.5773 11.8581,-16.4196 3.1924,-6.839 4.5582,-15.5046 4.5582,-26.4477 0,-8.2115 -1.3658,-15.0504 -3.6466,-20.9812 -2.2808,-5.9273 -5.9307,-10.4855 -10.4923,-14.5929 -4.5582,-3.6466 -9.5739,-6.3815 -16.4128,-8.2082 -6.3883,-1.8232 -13.2272,-2.7349 -20.9812,-2.7349 -4.1007,0 -7.2965,0 -10.489,0.4575 -2.7315,0 -6.3814,0.4542 -10.943,0.9117 v 198.8283 H 261.683 V 934.8782 c 8.6656,-0.9117 18.2395,-1.3658 28.7284,-1.8233 10.4889,-0.4575 20.9778,-0.4575 31.0126,-0.4575 12.3122,0 23.2586,1.3691 32.3784,4.104 9.1197,2.7383 16.8737,6.8424 22.8011,11.8615 5.9307,5.0123 10.4889,11.3972 13.2238,18.6936 2.7383,7.2999 4.5616,15.5046 4.5616,24.6278 0,9.5739 -1.8233,18.697 -5.0157,26.9085 -3.65,8.2048 -8.6657,15.5012 -16.4163,21.8895 -7.2965,5.9239 -16.4196,10.943 -27.8202,14.5896 -10.943,3.6499 -24.6243,5.4732 -39.6748,5.4732 l -2.3757,-0.034 1.8131,-9.9501 v 0 z m 156.073,96.1726 V 933.9665 h 29.1825 v 197.0085 h 81.1798 l -2.2842,16.4163 H 460.9723 Z m 412.7106,-196.5509 -65.6683,-0.9117 2.2774,-15.5046 h 158.2487 l -2.2808,15.0505 -63.391,1.8233 v 196.551 h -29.186 z m 265.6389,196.5509 H 1025.3129 V 933.9665 h 108.9932 l -2.2774,15.5046 -77.9839,0.9117 v 75.249 l 73.8799,0.9116 -2.2808,13.6814 -71.5991,1.8232 v 88.4695 l 87.1037,1.8267 z m 116.1507,-89.8352 h -30.0976 v 89.8352 H 1196.189 V 934.424 c 8.6656,-0.9116 18.2395,-1.3691 28.7284,-1.8266 10.4889,-0.4541 20.9778,-0.4541 31.0126,-0.4541 12.3122,0 23.2586,1.3691 32.3784,4.104 9.1164,2.7349 16.8704,6.3849 22.8011,11.4006 5.9273,5.0157 10.4889,10.943 13.2238,18.2429 2.7383,7.2965 4.5616,15.5046 4.5616,24.6243 0,8.6657 -1.3692,16.8738 -3.6499,23.7162 -2.2808,6.8389 -5.4733,12.7663 -9.5773,17.782 -4.1041,5.019 -8.6657,9.5772 -14.1389,13.2272 -5.4698,3.6499 -10.9396,6.3848 -17.3245,9.1197 6.3849,10.9465 12.3088,21.4354 18.2429,31.4668 5.924,10.0314 11.8581,18.697 17.7821,25.9969 5.9307,7.7506 11.858,13.6779 18.2429,17.782 7.3507,5.6528 14.5184,7.3913 23.5127,6.4221 l -1.6233,9.54 c -3.1924,0.9116 -6.8389,2.2808 -11.858,2.7349 -4.5582,0.915 -9.5739,0.915 -14.1355,0.915 -6.8424,0 -12.7697,-0.915 -17.7888,-2.7383 -5.0157,-1.8232 -9.5773,-5.4698 -14.1321,-10.4889 -4.5615,-5.0157 -9.5806,-12.3122 -15.0504,-21.4319 -5.4732,-9.1232 -11.8581,-20.9778 -20.0662,-35.5708 z m -20.9778,-14.5963 c 13.2272,0 23.7161,-0.9117 31.4667,-2.2774 8.2048,-1.3692 14.1389,-3.65 18.6937,-6.3849 1.83,-1.3691 3.6533,-2.7383 5.4732,-5.0191 1.83,-2.2774 3.1924,-4.5581 4.104,-7.7506 0.9117,-3.1924 2.2808,-7.2965 2.7383,-11.858 0.4542,-4.5582 0.9151,-10.0314 0.9151,-16.8704 0,-8.2115 -1.3726,-15.0505 -3.6534,-20.9812 -2.274,-5.9273 -5.9239,-10.4889 -10.028,-14.1355 -4.5615,-3.6499 -9.5772,-6.3848 -15.9621,-7.754 -6.3814,-1.8232 -13.6813,-2.2774 -21.4319,-2.2774 -4.1041,0 -7.2999,0 -10.4923,0.4542 -2.7349,0 -6.3849,0.4575 -10.9431,0.915 v 94.3968 h 9.1198 z m 238.8828,15.2775 h -30.0976 v 89.8352 h -29.1927 V 935.1052 c 8.669,-0.9116 18.2395,-1.3691 28.7318,-1.8266 10.4991,-0.4542 20.9812,-0.4542 31.016,-0.4542 12.3122,0 23.2586,1.3692 32.375,4.1041 9.1198,2.7349 16.8704,6.3849 22.8045,11.4006 5.9239,5.0157 10.4855,10.943 13.2238,18.2429 2.7383,7.2964 4.5582,15.5046 4.5582,24.6243 0,8.6657 -1.3658,16.8738 -3.6465,23.7161 -2.2741,6.839 -5.4665,12.7664 -9.5773,17.782 -4.1075,5.0191 -8.6589,9.5773 -14.1321,13.2273 -5.4766,3.6499 -10.9498,6.3848 -17.3346,9.1197 6.3848,10.9464 12.3087,21.4353 18.2429,31.4667 5.9239,10.0314 11.858,18.6971 17.782,25.9969 5.9307,7.7507 11.858,13.678 18.2429,17.7821 7.859,6.0459 14.715,7.1914 24.1668,6.517 l -2.274,9.4451 c -3.1924,0.9116 -6.8423,2.2808 -11.858,2.7349 -4.5616,0.915 -9.5773,0.915 -14.1389,0.915 -6.839,0 -12.7697,-0.915 -17.7786,-2.7383 -5.0259,-1.8233 -9.5773,-5.4698 -14.1422,-10.4889 -4.565,-5.0157 -9.5773,-12.3122 -15.0505,-21.4319 -5.4732,-9.1232 -11.8581,-20.9779 -20.0628,-35.5708 z m -20.9778,-14.5963 c 13.2204,0 23.7127,-0.9117 31.4633,-2.2774 8.2048,-1.3692 14.1423,-3.65 18.6971,-6.3849 1.83,-1.3691 3.6499,-2.7383 5.4698,-5.0191 1.8334,-2.2774 3.1924,-4.5582 4.1074,-7.7506 0.9185,-3.1924 2.2774,-7.2965 2.7383,-11.858 0.4542,-4.5582 0.9083,-10.0314 0.9083,-16.8704 0,-8.2115 -1.3692,-15.0505 -3.6466,-20.9812 -2.274,-5.9274 -5.9273,-10.4889 -10.0313,-14.1355 -4.5582,-3.6499 -9.5739,-6.3848 -15.9588,-7.754 -6.3814,-1.8232 -13.6813,-2.2774 -21.4353,-2.2774 -4.1041,0 -7.2897,0 -10.4889,0.4542 -2.7383,0 -6.3781,0.4575 -10.9431,0.915 v 94.3968 h 9.1198 z m 330.5176,103.7503 -26.9052,-78.438 -82.088,0.915 -28.7284,77.0689 h -21.4319 l 84.8195,-211.1439 25.0819,-7.2999 79.3531,218.4438 h -30.101 z m -31.0092,-91.6618 -35.5708,-99.4159 -36.9366,99.4159 z" style="fill:#104a39;fill-rule:evenodd" id="path8"></path>
                                    <path d="m 618.2442,1246.7996 c 81.6727,-64.438 133.6496,-164.6692 133.6496,-276.7891 0,-14.6641 -0.8953,-29.1255 -2.6294,-43.3208 h -25.5161 c 1.8684,14.1764 2.832,28.6332 2.832,43.3208 0,45.6792 -9.3347,89.179 -26.1993,128.6923 L 641.0768,959.9784 c -5.0161,-10.9415 -10.0345,-19.15 -14.1387,-24.1684 -2.7354,-3.6472 -6.842,-5.9278 -11.4057,-7.2967 -4.5542,-1.3712 -9.5726,-1.8236 -14.5887,-1.8236 -9.7093,0 -19.1005,1.2794 -28.4257,3.9464 l -2.1252,9.7352 c 8.5289,0 17.3335,-1.112 25.0778,3.1925 4.1043,1.8212 7.7538,5.4731 10.4892,10.0297 2.6788,4.9736 59.0403,137.2967 77.1207,179.7763 -26.5904,46.2305 -64.1082,85.3692 -109.0405,113.8822 l -6.0527,31.7973 c 16.9211,-7.0493 35.9204,-20.9382 50.2569,-32.2497 z m -99.8472,55.7702 c -37.4471,13.5049 -77.8275,20.8675 -119.9325,20.8675 -195.1944,0 -353.4293,-158.2325 -353.4293,-353.4268 0,-195.192 158.2349,-353.4269 353.4293,-353.4269 162.8292,0 299.9398,110.1149 340.9327,259.9387 H 713.0731 C 672.8175,740.8537 547.1951,641.8924 398.4645,641.8924 c -181.2159,0 -328.1206,146.9046 -328.1206,328.1181 0,181.2158 146.9047,328.1181 328.1206,328.1181 44.4163,0 86.7687,-8.8258 125.408,-24.8186 z" style="fill:#20ac52;fill-rule:evenodd" id="path10"></path>
                                    <path d="m 1263.2341,1235.3237 v 33.3898 c -3.6197,0.8039 -8.9833,2.0096 -16.2248,2.0096 -25.3421,0 -35.8014,-16.6267 -35.8014,-35.6673 0,-24.1363 15.8229,-35.6673 34.8635,-35.6673 7.9115,0 15.555,2.0119 21.0526,4.5597 0.6698,0.268 3.4856,2.0096 4.0215,2.0096 0.268,0 0.5359,-0.2679 0.6699,-0.2679 l 1.61,-1.0718 c 0.5359,-0.4019 0.5359,-0.6699 0.5359,-1.2081 l -0.4019,-7.3732 c 0,-1.3421 -0.6699,-1.744 -1.6077,-2.012 -1.0741,-0.5359 -11.6674,-3.0837 -23.1985,-3.0837 -36.4735,0 -52.5643,23.5981 -52.5643,46.1266 0,8.5813 2.4138,18.9067 9.5214,27.354 6.5694,7.9114 17.2967,14.7511 38.4832,14.7511 5.6315,0 18.1027,-0.8062 32.8515,-4.0239 v -39.8252 z m 91.5556,6.1698 c 8.3134,0.4019 11.3971,0 14.2129,-0.4042 4.2918,7.9114 13.9449,25.6123 22.2583,32.0477 4.2918,3.488 11.5334,5.4976 16.4928,5.4976 1.744,0 5.0957,-0.134 5.4999,-1.6077 l 1.3397,-4.4258 -0.4019,-0.5359 c -6.7057,-0.6699 -10.1913,-3.6196 -11.8013,-5.2296 -4.5575,-4.5598 -12.067,-14.079 -19.5765,-28.4281 4.4258,-1.6077 18.9066,-6.8374 18.9066,-23.3301 0,-4.8277 -1.4737,-11.8014 -6.9713,-16.6291 -6.3038,-5.6315 -15.287,-6.4354 -27.086,-6.4354 -2.012,0 -4.1579,0.134 -5.7679,0.134 -2.9497,0 -17.5646,0.4019 -20.9162,0.4019 v 85.014 h 13.8109 z m 0,-40.8993 c 5.3636,-0.2679 9.5192,-0.2679 10.7273,-0.2679 8.3133,0 21.4544,0 21.4544,15.9568 0,16.7608 -14.3492,17.4329 -23.4664,17.4329 -3.6196,0 -6.7057,-0.1339 -8.7153,-0.2679 z m 155.1129,-10.055 c -10.9952,0 -20.9186,2.0096 -30.708,8.9832 -12.8731,9.2512 -18.6386,22.7942 -18.6386,36.0693 0,21.4544 15.6889,43.983 45.3227,43.983 28.964,0 48.0046,-19.9807 48.0046,-45.5907 0,-24.2702 -17.7008,-43.4448 -43.9807,-43.4448 z m -2.2799,8.8493 c 19.0406,0 31.2416,18.2367 31.2416,37.0094 0,19.7104 -12.7369,34.3252 -30.4377,34.3252 -18.9067,0 -32.8516,-16.4927 -32.8516,-37.141 0,-12.6052 6.4354,-34.1936 32.0477,-34.1936 z m 106.4361,-6.8397 v 45.9927 c 0,18.1027 0.8039,23.7343 4.9617,29.6338 2.9498,4.2918 9.2512,10.9975 27.8899,10.9975 13.677,0 24.4042,-3.8899 30.8419,-10.3253 6.7034,-6.8397 8.0454,-16.2248 8.1794,-33.2558 l 0.4019,-43.0429 h -10.9951 v 43.1769 c 0,10.9951 -0.268,19.4448 -3.6197,24.2702 -4.6937,6.9736 -14.4831,8.9856 -21.1865,8.9856 -2.5478,0 -14.7511,-0.268 -19.4448,-6.9737 -3.2177,-4.8277 -3.2177,-10.5932 -3.2177,-23.8683 v -45.5907 z m 152.1631,52.4304 c 3.4857,0.1339 12.335,0.4019 18.7727,-0.268 21.8564,-2.2799 28.0238,-16.763 28.0238,-27.22 0,-6.3037 -2.2799,-13.543 -7.6435,-18.5047 -6.8373,-6.1697 -16.7607,-6.9736 -27.086,-6.9736 -1.7417,0 -22.3923,0.5359 -25.8779,0.5359 v 85.014 h 13.8109 z m 0,-44.251 c 3.6197,-0.134 8.0455,-0.2679 10.0551,-0.2679 7.7775,0 21.9926,0 21.9926,17.7008 0,17.8325 -14.6171,18.5047 -23.4663,18.5047 -4.2919,0 -6.1675,-0.134 -8.5814,-0.4019 z" style="fill:#104a39;fill-rule:evenodd" id="path12"></path>
                                </g>
                            </svg>